<?xml version="1.0" standalone="no"?>
<!DOCTYPE svg PUBLIC "-//W3C//DTD SVG 20010904//EN"
 "http://www.w3.org/TR/2001/REC-SVG-20010904/DTD/svg10.dtd">
<svg version="1.0" xmlns="http://www.w3.org/2000/svg"
 width="512.000000pt" height="512.000000pt" viewBox="0 0 512.000000 512.000000"
 preserveAspectRatio="xMidYMid meet">

<g transform="translate(0.000000,512.000000) scale(0.100000,-0.100000)"
fill="#000000" stroke="none">
<path d="M1758 4910 c-63 -49 -118 -177 -118 -275 0 -99 35 -182 116 -277 93
-110 99 -254 14 -360 -33 -41 -38 -78 -14 -102 40 -40 103 6 151 110 66 145
42 304 -67 429 -59 68 -83 126 -83 200 0 66 25 136 68 187 28 33 31 56 13 80
-22 27 -53 30 -80 8z"/>
<path d="M1222 4653 c-59 -63 -86 -134 -90 -238 -4 -106 17 -178 74 -248 64
-79 93 -129 105 -181 17 -75 -1 -151 -52 -218 -21 -29 -39 -60 -39 -70 0 -22
34 -58 55 -58 28 0 85 62 117 128 31 62 33 74 33 167 -1 88 -4 107 -27 155
-15 30 -50 82 -77 114 -100 118 -109 239 -25 358 43 60 47 84 18 112 -25 26
-54 19 -92 -21z"/>
<path d="M2246 4649 c-74 -87 -107 -206 -86 -311 16 -81 40 -131 96 -198 64
-76 87 -130 86 -204 0 -68 -16 -116 -63 -181 -36 -51 -34 -88 6 -107 33 -15
65 7 109 75 99 150 82 337 -42 480 -59 68 -74 102 -80 178 -5 79 8 124 54 185
38 49 43 83 16 107 -30 27 -58 20 -96 -24z"/>
<path d="M2120 3469 c-584 -75 -1126 -425 -1497 -966 -116 -169 -232 -389
-283 -539 -50 -144 -64 -339 -34 -482 32 -157 117 -329 214 -436 l52 -56 -124
0 c-116 0 -128 -2 -179 -27 -172 -88 -179 -322 -12 -420 47 -27 52 -28 234
-33 l186 -5 142 -152 c78 -84 152 -155 164 -158 12 -3 730 -4 1596 -3 l1575 3
145 155 144 155 187 5 c186 5 187 5 236 35 159 99 156 324 -6 415 -42 24 -56
25 -233 30 l-188 5 62 45 c128 93 234 242 289 408 28 83 34 115 38 222 5 151
-17 259 -79 388 -39 80 -177 273 -257 360 -44 46 -78 54 -105 24 -28 -31 -20
-54 54 -142 210 -251 274 -390 273 -595 0 -129 -18 -203 -74 -320 -87 -181
-250 -315 -451 -372 -61 -17 -152 -18 -1719 -18 -1614 0 -1656 0 -1707 19
-114 43 -192 126 -273 291 -67 138 -83 204 -84 350 0 142 19 228 90 389 115
263 293 523 500 729 320 320 682 509 1109 579 135 22 446 16 600 -11 304 -53
643 -181 919 -346 102 -60 137 -68 160 -32 26 39 10 63 -78 116 -344 206 -712
339 -1066 387 -114 15 -413 17 -520 3z m2693 -2613 c76 -52 74 -169 -5 -212
-34 -19 -4462 -19 -4496 0 -98 54 -72 208 39 229 13 2 1016 4 2229 3 2148 -1
2206 -1 2233 -20z m-614 -446 l-92 -100 -1547 0 -1547 0 -92 100 -93 100 1732
0 1732 0 -93 -100z"/>
<path d="M4350 3439 c-101 -20 -188 -107 -210 -213 -13 -62 -6 -114 22 -170
19 -37 19 -39 1 -51 -10 -8 -106 -81 -213 -163 -188 -144 -196 -149 -218 -134
-31 20 -240 11 -384 -17 -211 -42 -522 -148 -708 -241 -241 -120 -377 -275
-425 -485 -21 -88 -21 -241 0 -320 59 -223 231 -407 445 -477 91 -29 272 -36
360 -14 87 22 192 73 265 129 138 104 376 373 508 574 155 236 246 461 207
508 -7 9 -11 17 -9 20 3 2 99 76 214 163 l209 160 40 -34 c42 -36 117 -64 171
-64 199 0 334 226 240 399 -34 61 -82 104 -141 127 -39 15 -42 19 -48 63 -8
62 -49 144 -89 177 -65 55 -155 79 -237 63z m126 -128 c25 -11 50 -33 64 -56
20 -33 22 -45 17 -110 -8 -84 5 -105 64 -105 90 -1 159 -68 159 -154 0 -108
-93 -182 -194 -155 -36 10 -52 24 -116 97 -10 12 -26 22 -35 22 -8 0 -126 -83
-260 -185 -135 -102 -249 -185 -254 -185 -12 0 -93 109 -89 120 2 5 108 88
236 186 128 97 240 187 249 200 14 22 14 26 -3 50 -65 90 -76 131 -53 191 22
59 83 102 144 102 17 0 48 -8 71 -18z m-696 -843 c60 -79 110 -151 110 -161 0
-27 -62 -172 -111 -257 -151 -267 -417 -580 -592 -698 -178 -118 -374 -133
-563 -42 -178 86 -295 260 -311 460 -13 176 66 360 204 471 208 167 791 362
1100 368 l52 1 111 -142z"/>
<path d="M2656 1939 c-33 -26 -36 -79 -6 -109 30 -30 83 -27 109 6 28 35 26
69 -4 99 -30 30 -64 32 -99 4z"/>
<path d="M2850 1740 c-45 -45 -13 -130 49 -130 45 0 75 30 75 75 0 66 -78 101
-124 55z"/>
<path d="M2602 1687 c-12 -13 -22 -36 -22 -51 0 -34 41 -76 75 -76 35 0 75 42
75 78 0 63 -84 95 -128 49z"/>
<path d="M1449 2182 c-516 -261 -768 -461 -769 -610 -1 -135 273 -321 530
-362 224 -35 480 26 678 162 121 84 134 192 31 262 -69 47 -285 106 -384 106
-19 0 -35 3 -35 6 0 3 22 31 50 62 114 130 192 253 205 324 10 53 -16 102 -66
122 -22 9 -45 16 -52 16 -7 0 -92 -40 -188 -88z m177 -80 c-24 -47 -127 -181
-209 -272 -85 -94 -93 -120 -54 -164 19 -22 35 -27 127 -36 176 -19 322 -55
375 -94 19 -14 18 -15 -16 -48 -48 -45 -135 -90 -250 -129 -81 -28 -111 -33
-220 -37 -152 -5 -247 15 -379 79 -108 54 -213 151 -203 189 15 61 194 204
418 336 150 88 420 224 423 214 2 -5 -4 -22 -12 -38z"/>
</g>
</svg>
