<?xml version="1.0" standalone="no"?>
<!DOCTYPE svg PUBLIC "-//W3C//DTD SVG 20010904//EN"
 "http://www.w3.org/TR/2001/REC-SVG-20010904/DTD/svg10.dtd">
<svg version="1.0" xmlns="http://www.w3.org/2000/svg"
 width="512.000000pt" height="512.000000pt" viewBox="0 0 512.000000 512.000000"
 preserveAspectRatio="xMidYMid meet">

<g transform="translate(0.000000,512.000000) scale(0.100000,-0.100000)"
fill="#000000" stroke="none">
<path d="M2607 5106 c-74 -27 -117 -64 -144 -123 l-26 -56 32 -236 c17 -130
31 -242 31 -249 0 -9 -111 -12 -493 -12 -370 0 -496 -3 -505 -12 -8 -8 -12
-60 -12 -168 l0 -157 -90 -151 -90 -151 0 -1582 0 -1582 90 -136 90 -137 0
-161 c0 -142 2 -162 18 -176 17 -16 105 -17 1055 -17 1024 0 1037 0 1057 20
18 18 20 33 20 185 l0 164 85 129 85 129 0 1582 0 1583 -85 142 -85 142 0 155
c0 124 -3 159 -16 177 -15 22 -19 22 -250 22 -228 0 -234 1 -234 20 0 11 14
109 30 217 42 275 40 305 -23 371 -68 71 -90 77 -307 79 -147 2 -204 -1 -233
-11z m417 -121 c40 -19 60 -51 57 -95 -1 -19 -16 -129 -34 -245 l-33 -210
-189 -3 c-104 -1 -192 1 -196 5 -4 5 -22 115 -39 246 -30 224 -31 240 -15 263
30 45 66 53 248 54 130 0 176 -3 201 -15z m496 -770 l0 -95 -957 2 -958 3 -3
93 -3 92 961 0 960 0 0 -95z m99 -334 l71 -119 0 -1552 0 -1551 -70 -104 -70
-105 -990 0 -990 0 -70 105 -70 104 0 1551 0 1552 71 119 72 119 987 0 987 0
72 -119z m-99 -3656 l0 -105 -960 0 -960 0 0 98 c0 54 3 102 7 105 3 4 435 7
960 7 l953 0 0 -105z"/>
<path d="M2767 4873 c-4 -3 -7 -39 -7 -80 l0 -73 60 0 60 0 0 80 0 80 -53 0
c-30 0 -57 -3 -60 -7z"/>
<path d="M2365 2940 c-12 -4 -25 -14 -31 -21 -13 -17 -334 -804 -334 -819 0
-6 11 -22 25 -35 24 -24 28 -25 180 -25 109 0 155 -3 155 -11 0 -7 -36 -165
-80 -353 -45 -187 -79 -352 -78 -366 4 -35 49 -59 80 -41 27 15 827 1041 835
1070 3 13 -4 29 -21 45 -25 26 -27 26 -186 26 -88 0 -160 2 -160 4 0 3 43 106
95 230 52 124 95 234 95 243 0 26 -12 40 -43 52 -33 13 -502 14 -532 1z m425
-115 c0 -3 -43 -106 -95 -230 -52 -123 -95 -235 -95 -249 0 -50 18 -56 182
-56 82 0 148 -4 146 -9 -5 -12 -542 -700 -545 -697 -1 1 25 116 57 255 33 139
60 260 60 269 0 8 -7 24 -17 34 -14 16 -34 18 -176 18 -123 0 -158 3 -154 13
9 22 238 581 254 620 l15 37 184 0 c101 0 184 -2 184 -5z"/>
</g>
</svg>
