<?xml version="1.0" standalone="no"?>
<!DOCTYPE svg PUBLIC "-//W3C//DTD SVG 20010904//EN"
 "http://www.w3.org/TR/2001/REC-SVG-20010904/DTD/svg10.dtd">
<svg version="1.0" xmlns="http://www.w3.org/2000/svg"
 width="512.000000pt" height="512.000000pt" viewBox="0 0 512.000000 512.000000"
 preserveAspectRatio="xMidYMid meet">

<g transform="translate(0.000000,512.000000) scale(0.100000,-0.100000)"
fill="#000000" stroke="none">
<path d="M4233 4408 c-44 -22 -51 -99 -11 -125 7 -4 104 -10 215 -13 196 -5
202 -6 227 -29 36 -34 36 -98 0 -132 l-26 -24 -290 -5 c-272 -5 -291 -6 -304
-24 -24 -33 -18 -82 13 -106 27 -21 34 -21 318 -18 275 3 292 4 330 25 89 48
135 123 135 220 -1 96 -46 169 -135 217 -37 19 -57 21 -245 23 -132 2 -213 -1
-227 -9z"/>
<path d="M324 4296 c-50 -22 -74 -61 -74 -120 1 -28 58 -627 128 -1331 l128
-1280 -176 -5 c-197 -6 -227 -14 -281 -79 -88 -107 -51 -263 76 -322 31 -14
64 -19 147 -19 l107 0 33 -62 c21 -41 65 -95 123 -153 102 -103 198 -160 332
-198 l78 -22 1555 -3 c1095 -2 1566 0 1592 8 22 6 48 24 63 44 l25 33 0 224 0
225 45 22 c87 42 221 132 316 210 328 272 547 701 574 1122 6 84 4 99 -14 127
-11 18 -32 40 -48 50 -26 17 -97 18 -1435 21 -1208 2 -1408 4 -1408 17 0 7 29
308 65 667 36 359 65 676 65 704 0 60 -25 99 -76 120 -49 20 -1894 20 -1940 0z
m1866 -143 c0 -5 -9 -112 -22 -240 l-22 -232 -182 -3 c-162 -3 -184 -5 -203
-22 -14 -13 -21 -31 -21 -57 0 -64 17 -69 219 -69 l174 0 -6 -37 c-3 -21 -20
-187 -38 -369 l-32 -332 -44 -6 c-107 -14 -137 -56 -131 -186 l3 -87 -66 5
c-77 5 -120 -7 -180 -50 -40 -29 -50 -31 -130 -32 -80 -1 -91 -3 -131 -31 -23
-17 -56 -49 -73 -72 -26 -35 -37 -41 -79 -47 -98 -14 -176 -77 -206 -167 -15
-44 -23 -54 -54 -64 -89 -31 -153 -114 -163 -212 -6 -54 -10 -61 -59 -108 -37
-36 -56 -63 -65 -95 -7 -25 -15 -48 -18 -52 -7 -8 -201 1923 -194 1935 2 4
232 7 511 7 571 0 552 -2 552 69 0 26 -7 44 -21 57 -20 18 -46 19 -540 22
l-519 3 -4 22 c-3 12 -12 99 -21 192 -9 94 -19 191 -22 218 l-6 47 897 0 c493
0 896 -3 896 -7z m2774 -1553 c-1 -19 -4 -61 -8 -92 l-7 -58 -1339 0 -1339 0
-46 32 c-37 26 -57 33 -117 37 l-73 6 -3 58 -3 57 1468 -2 1468 -3 -1 -35z
m-3094 -265 c27 -23 52 -35 72 -35 20 0 44 12 71 35 71 61 125 47 190 -49 25
-37 59 -42 107 -17 73 38 136 23 159 -39 6 -16 16 -43 22 -59 15 -41 49 -54
105 -40 84 21 134 -19 134 -109 0 -71 29 -102 93 -102 84 0 127 -58 106 -142
-18 -68 -5 -98 50 -119 52 -19 91 -53 91 -80 0 -18 -12 -19 -264 -19 -251 0
-265 -1 -290 -21 -33 -26 -36 -79 -6 -109 20 -20 33 -20 604 -20 l585 0 20
-27 c23 -28 20 -59 -7 -80 -13 -10 -382 -13 -1773 -13 l-1758 0 -15 22 c-21
30 -20 54 4 78 20 20 33 20 1045 20 1012 0 1025 0 1045 20 30 30 27 83 -6 109
-26 21 -34 21 -735 21 -390 0 -709 3 -709 8 0 4 9 21 19 38 17 27 36 39 93 58
9 2 25 17 34 31 15 23 15 32 4 80 -22 92 18 145 110 145 27 0 47 7 60 20 20
20 23 31 21 85 -2 39 32 93 67 106 20 8 40 8 76 -1 43 -11 51 -10 74 7 16 12
32 38 39 64 24 85 94 112 172 67 50 -28 84 -19 116 31 51 81 107 93 175 36z
m3040 -45 c0 -5 -14 -48 -32 -95 l-32 -85 -987 0 -987 0 -13 31 c-30 75 -94
123 -191 144 -55 12 90 14 1090 14 746 1 1152 -2 1152 -9z m-150 -335 c0 -13
-103 -156 -158 -219 -118 -136 -259 -244 -439 -339 -91 -48 -119 -68 -124 -87
-4 -14 -7 -123 -8 -242 l-1 -218 -374 0 -374 0 72 73 c40 39 92 104 115 144
l42 71 119 4 c113 3 120 4 162 33 127 90 123 274 -10 352 l-47 28 -257 3 -258
3 0 28 c0 44 -51 133 -95 166 -37 28 -40 35 -42 83 -1 28 -9 65 -18 81 -8 17
-15 32 -15 36 0 3 385 5 855 5 470 0 855 -2 855 -5z m-1430 -824 c0 -5 -20
-34 -45 -64 -71 -88 -176 -155 -300 -194 -57 -17 -117 -18 -1045 -18 l-985 0
-85 31 c-47 16 -111 47 -143 68 -55 36 -147 128 -168 167 -9 19 18 19 1381 19
826 0 1390 -4 1390 -9z"/>
<path d="M1691 2024 c-24 -30 -26 -43 -10 -78 17 -36 58 -49 138 -44 83 4 111
23 111 75 0 58 -26 73 -129 73 -85 0 -91 -1 -110 -26z"/>
<path d="M2255 1889 c-49 -28 -58 -70 -24 -113 19 -25 25 -26 110 -26 76 0 92
3 109 20 25 25 26 71 1 101 -17 21 -29 24 -98 27 -46 1 -86 -2 -98 -9z"/>
<path d="M1215 1815 c-14 -13 -25 -36 -25 -50 0 -14 11 -37 25 -50 21 -22 33
-25 103 -25 97 0 132 20 132 75 0 55 -35 75 -132 75 -70 0 -82 -3 -103 -25z"/>
<path d="M3100 4064 c-58 -25 -99 -63 -126 -116 -22 -44 -26 -61 -22 -124 3
-61 8 -79 33 -116 17 -23 50 -56 74 -73 l43 -30 361 -5 c267 -4 368 -8 384
-18 52 -29 58 -98 14 -143 l-29 -29 -389 0 c-236 0 -403 -4 -425 -10 -56 -16
-119 -69 -147 -125 -23 -44 -26 -61 -26 -162 0 -102 2 -114 22 -134 29 -29 81
-28 105 2 14 16 18 40 18 104 0 45 5 96 11 114 21 60 28 61 450 61 273 0 393
4 423 12 56 17 141 100 155 153 39 143 -42 285 -179 314 -31 7 -179 11 -376
11 l-325 0 -24 25 c-36 35 -35 97 1 130 l27 25 307 0 c296 0 308 1 334 21 33
26 36 79 6 109 -19 19 -33 20 -342 20 -264 -1 -329 -4 -358 -16z"/>
</g>
</svg>
