<?xml version="1.0" standalone="no"?>
<!DOCTYPE svg PUBLIC "-//W3C//DTD SVG 20010904//EN"
 "http://www.w3.org/TR/2001/REC-SVG-20010904/DTD/svg10.dtd">
<svg version="1.0" xmlns="http://www.w3.org/2000/svg"
 width="512.000000pt" height="512.000000pt" viewBox="0 0 512.000000 512.000000"
 preserveAspectRatio="xMidYMid meet">

<g transform="translate(0.000000,512.000000) scale(0.100000,-0.100000)"
fill="#000000" stroke="none">
<path d="M3407 5098 c-18 -18 -92 -267 -342 -1140 -346 -1210 -333 -1157 -272
-1186 25 -12 46 -9 205 33 2224 589 2122 560 2122 620 0 39 -78 259 -97 272
-27 21 -71 15 -98 -12 -31 -30 -31 -34 0 -125 14 -40 23 -75 21 -78 -11 -11
-300 -82 -305 -75 -4 4 -22 49 -40 98 -184 496 -573 891 -1079 1095 -51 21
-95 40 -98 43 -4 4 74 294 82 305 6 9 214 -78 320 -133 355 -184 657 -456 869
-783 50 -78 79 -98 119 -82 27 10 56 46 56 70 0 20 -88 156 -168 260 -91 117
-277 306 -394 401 -229 184 -464 314 -734 404 -123 41 -138 42 -167 13z m109
-658 c199 -85 376 -204 534 -360 117 -115 203 -225 286 -367 62 -104 144 -289
147 -329 2 -25 -3 -28 -63 -45 -36 -11 -67 -19 -70 -19 -3 0 -13 22 -23 49
-22 63 -96 145 -161 179 -44 23 -63 27 -141 27 -79 0 -97 -3 -149 -29 -73 -36
-134 -95 -167 -161 -20 -43 -24 -64 -24 -146 l0 -97 -365 -96 c-201 -53 -370
-96 -376 -96 -7 0 15 93 55 233 l67 232 57 7 c116 15 205 77 260 182 30 57 32
68 32 161 0 89 -3 106 -27 151 -24 46 -82 109 -122 131 -15 8 -10 31 46 227
72 251 49 232 204 166z m-241 -648 c14 -84 -33 -169 -113 -204 -24 -11 -45
-18 -47 -16 -2 2 17 77 43 167 l46 163 32 -35 c19 -21 34 -50 39 -75z m798
-373 c50 -14 101 -60 114 -103 l11 -35 -52 -15 c-168 -48 -290 -77 -302 -72
-20 7 -18 89 2 132 19 41 60 72 117 90 53 16 63 16 110 3z"/>
<path d="M3581 4174 c-12 -15 -21 -31 -21 -37 0 -6 27 -96 61 -201 63 -200 83
-236 133 -236 25 0 61 30 71 59 9 30 -121 418 -145 431 -35 19 -77 12 -99 -16z"/>
<path d="M2060 4724 c-242 -32 -519 -118 -745 -231 -239 -119 -430 -257 -620
-448 -359 -358 -592 -822 -672 -1336 -24 -158 -24 -510 0 -666 110 -699 475
-1272 1052 -1653 280 -184 617 -312 965 -367 159 -24 499 -24 660 0 551 85
1005 316 1380 703 296 306 510 693 605 1099 48 204 60 315 59 560 -1 202 -4
247 -27 375 -34 189 -47 229 -79 253 l-26 20 -349 -91 c-1361 -355 -1776 -462
-1778 -460 -2 2 116 453 261 1003 324 1230 293 1104 282 1137 -15 43 -113 71
-353 103 -145 19 -470 18 -615 -1z m680 -159 c143 -26 133 -7 88 -181 l-40
-151 -71 13 c-449 86 -954 -10 -1347 -256 -227 -142 -500 -404 -500 -481 0
-46 39 -76 89 -69 7 1 79 68 160 149 179 181 283 257 496 364 260 130 606 195
898 168 108 -10 225 -27 234 -35 1 -1 -24 -100 -56 -221 l-58 -219 -89 0 c-74
-1 -98 -5 -145 -27 -73 -34 -134 -96 -167 -168 -37 -79 -38 -192 -1 -271 34
-73 104 -142 174 -171 31 -13 54 -28 52 -33 -2 -6 -39 -145 -82 -310 -73 -278
-78 -300 -64 -325 30 -54 33 -54 525 74 l457 119 16 -24 c30 -50 104 -110 160
-131 203 -79 428 54 457 268 6 52 7 53 48 64 22 5 56 15 75 21 26 8 35 7 41
-3 33 -52 47 -456 21 -614 -104 -662 -563 -1203 -1193 -1409 -374 -123 -804
-112 -1167 28 -261 101 -514 277 -692 481 -298 340 -456 789 -435 1230 12 255
54 425 179 716 13 28 13 40 4 59 -17 34 -57 55 -91 46 -23 -6 -35 -23 -71 -99
-237 -503 -231 -1105 15 -1616 321 -665 981 -1081 1715 -1081 642 0 1239 323
1591 860 260 398 367 896 288 1348 -9 52 -13 96 -11 99 7 6 299 84 302 81 13
-13 47 -285 52 -408 35 -910 -503 -1756 -1344 -2117 -691 -297 -1471 -227
-2103 188 -140 91 -222 159 -355 293 -337 338 -539 740 -621 1241 -25 152 -26
485 0 640 37 233 96 423 192 625 78 163 131 249 241 397 348 467 895 782 1498
862 114 16 524 6 635 -14z m-155 -1074 c3 -6 -16 -89 -41 -185 l-47 -174 -26
9 c-59 23 -120 110 -121 172 0 63 55 146 115 173 35 15 111 18 120 5z m1180
-868 c-32 -76 -90 -115 -170 -117 -50 0 -128 33 -139 59 -2 7 51 26 153 52 86
23 159 42 164 42 4 1 0 -16 -8 -36z"/>
<path d="M1695 3808 c-28 -15 -45 -38 -45 -62 0 -19 160 -300 207 -363 19 -26
31 -33 58 -33 37 0 75 37 75 73 0 27 -197 363 -223 382 -25 18 -45 18 -72 3z"/>
<path d="M1169 3336 c-87 -31 -164 -101 -202 -184 -32 -72 -31 -199 4 -272 33
-70 95 -132 167 -167 48 -23 70 -28 137 -28 71 0 88 4 147 33 73 36 124 87
160 161 19 38 23 63 23 141 0 83 -3 101 -27 145 -36 69 -92 122 -163 156 -50
24 -72 29 -135 29 -41 -1 -91 -7 -111 -14z m184 -150 c101 -43 139 -172 78
-267 -79 -125 -260 -110 -322 26 -56 122 30 255 164 255 26 0 62 -6 80 -14z"/>
<path d="M2054 2778 c-46 -35 -267 -229 -287 -251 -43 -48 6 -138 67 -123 14
3 85 58 158 122 207 180 214 190 159 245 -35 35 -59 36 -97 7z"/>
<path d="M1340 2285 c-8 -2 -96 -9 -194 -16 -166 -11 -182 -14 -203 -35 -29
-30 -29 -66 1 -100 l23 -28 174 13 c228 16 258 20 280 42 52 52 -7 140 -81
124z"/>
<path d="M3779 2167 c-13 -7 -75 -87 -136 -180 -87 -129 -113 -175 -113 -201
0 -50 48 -84 95 -66 30 12 255 344 255 378 0 55 -54 91 -101 69z"/>
<path d="M2902 2146 c-153 -13 -167 -18 -178 -71 -4 -22 0 -38 16 -58 26 -33
43 -33 295 -13 153 13 171 16 187 36 22 27 23 68 2 98 -14 20 -23 22 -97 21
-45 -1 -146 -7 -225 -13z"/>
<path d="M2090 2003 c-47 -17 -66 -78 -37 -115 6 -9 87 -64 178 -122 180 -114
209 -124 247 -83 27 28 28 68 5 94 -10 11 -56 44 -103 74 -280 176 -257 164
-290 152z"/>
<path d="M1350 1821 c-124 -38 -221 -147 -239 -268 -22 -153 54 -296 192 -359
52 -24 75 -29 142 -29 103 0 171 31 244 111 195 213 42 557 -247 553 -37 0
-78 -4 -92 -8z m191 -170 c125 -79 110 -260 -26 -322 -76 -35 -169 -13 -218
52 -31 42 -40 71 -39 126 1 50 19 87 59 125 60 57 152 65 224 19z"/>
<path d="M3018 1626 c-175 -62 -267 -226 -224 -397 28 -107 88 -181 186 -228
46 -22 69 -26 140 -26 102 0 155 21 228 89 149 140 138 378 -22 505 -80 64
-217 89 -308 57z m209 -173 c54 -43 76 -85 76 -147 0 -81 -39 -139 -115 -171
-98 -40 -213 15 -248 121 -25 75 19 176 92 213 63 32 144 26 195 -16z"/>
<path d="M2150 1330 c-11 -11 -20 -32 -20 -47 0 -51 107 -406 126 -420 28 -21
72 -16 99 12 14 13 25 30 25 37 0 34 -111 402 -126 419 -23 25 -78 25 -104 -1z"/>
</g>
</svg>
