<svg width="312" height="256" viewBox="0 0 312 256" fill="none" xmlns="http://www.w3.org/2000/svg">
<path d="M49.2493 233.571C27.7781 225.077 19.4567 206.323 19.9704 180.062C20.3307 161.642 32.2779 156.072 35.7078 138.274C40.7567 112.076 23.8268 93.3155 32.4139 68.968C35.7406 59.5358 38.4538 54.4967 44.1255 47.5645C50.0411 40.3342 54.5559 38.4281 61.6928 33.8051C73.7836 25.9732 82.5656 28.4452 94.2655 19.5362C104.704 11.5877 109.22 6.10406 120.701 1.76328C135.974 -4.01072 141.212 5.95637 156.849 9.34406C174.22 13.1073 185.663 -2.1689 199.21 13.4312C208.326 23.9282 206.855 35.2048 214.675 47.5645C221.828 58.8716 228.948 65.9103 237.732 68.968C246.515 72.0256 248.857 66.5828 259.836 74.2269C268.62 80.3422 269.61 82.1207 271.036 93.9387C272.17 103.33 267.217 108.395 267.743 117.89C268.32 128.318 271.409 133.456 274.696 142.861C277.893 152.006 283.658 155.142 284.212 165.284C284.952 178.83 277.238 184.353 271.036 194.841C266.54 202.445 264.753 208.874 258.227 212.677C254.477 214.862 251.703 212.952 247.979 215.225C238.595 220.953 241.029 226.289 232.358 233.892C220.538 244.259 217.359 236.628 199.303 240.705C181.248 244.782 157.033 256.315 129.4 255.993C97.4748 255.622 70.7204 242.064 49.2493 233.571Z" fill="#F4F7FA"/>
<path d="M242.937 106.017C244.638 106.862 245.411 106.573 245.742 105.903C246.071 105.233 245.833 104.441 244.134 103.595C241.038 102.054 238.943 102.521 238.943 102.521C238.943 102.521 239.795 104.454 242.937 106.017Z" fill="#B2C9C6"/>
<path d="M243.89 118.324C245.225 119.677 246.05 119.654 246.578 119.127C247.106 118.6 247.137 117.772 245.801 116.42C243.367 113.956 241.235 113.717 241.235 113.717C241.235 113.717 241.42 115.826 243.89 118.324Z" fill="#B2C9C6"/>
<path d="M246.97 151.065L247.325 151.008C247.317 150.954 246.41 144.675 247.695 136.394C248.882 128.753 252.177 117.14 261.132 105.209L260.845 104.993C251.84 116.99 248.53 128.668 247.339 136.354C246.047 144.685 246.962 151.008 246.97 151.065Z" fill="#B2C9C6"/>
<path d="M252.248 119.861L252.537 119.647C244.744 109.148 248.028 95.4927 248.062 95.3563L247.714 95.2694C247.679 95.4058 244.353 109.223 252.248 119.861Z" fill="#B2C9C6"/>
<path d="M257.23 113.642C260.868 113.383 263.489 111.358 263.519 111.335L263.298 111.05C263.264 111.075 259.907 113.666 255.556 113.267L255.524 113.627C256.111 113.68 256.682 113.681 257.23 113.642Z" fill="#B2C9C6"/>
<path d="M246.938 142.17C254.235 140.804 259.944 136.779 263.902 130.202C264.04 129.973 264.169 129.759 264.21 129.719C264.21 129.719 264.198 129.731 264.174 129.741L264.037 129.409C263.938 129.45 263.882 129.54 263.595 130.018C259.691 136.503 254.064 140.472 246.872 141.817L246.938 142.17Z" fill="#B2C9C6"/>
<path d="M257.069 137.556L257.408 137.437C255.804 132.816 258.444 125.665 258.471 125.593L258.135 125.467C258.128 125.486 257.447 127.316 256.979 129.702C256.542 131.913 256.206 135.071 257.069 137.556Z" fill="#B2C9C6"/>
<path d="M261.231 103.186C259.457 105.037 259.364 106.008 259.9 106.525C260.437 107.043 261.397 106.912 263.171 105.061C266.403 101.688 266.994 99.1212 266.994 99.1212C266.994 99.1212 264.509 99.7637 261.231 103.186Z" fill="#B2C9C6"/>
<path d="M262.475 110.24C260.228 111.469 259.847 112.366 260.204 113.022C260.559 113.678 261.516 113.843 263.763 112.616C267.858 110.378 269.192 108.11 269.192 108.11C269.192 108.11 266.629 107.97 262.475 110.24Z" fill="#B2C9C6"/>
<path d="M257.32 124.501C256.573 126.251 256.904 127.011 257.588 127.304C258.272 127.599 259.048 127.316 259.795 125.566C261.156 122.377 260.577 120.303 260.577 120.303C260.577 120.303 258.702 121.264 257.32 124.501Z" fill="#B2C9C6"/>
<path d="M253.161 108.175C252.861 110.055 253.367 110.711 254.1 110.83C254.835 110.949 255.519 110.484 255.819 108.604C256.368 105.179 255.303 103.307 255.303 103.307C255.303 103.307 253.718 104.698 253.161 108.175Z" fill="#B2C9C6"/>
<path d="M252.195 135.988C252.433 137.878 253.102 138.364 253.84 138.27C254.578 138.176 255.105 137.539 254.867 135.649C254.434 132.206 252.889 130.711 252.889 130.711C252.889 130.711 251.757 132.496 252.195 135.988Z" fill="#B2C9C6"/>
<path d="M262.263 129.995C261.16 131.545 261.321 132.358 261.927 132.792C262.531 133.227 263.351 133.118 264.454 131.569C266.464 128.746 266.342 126.595 266.342 126.595C266.342 126.595 264.303 127.132 262.263 129.995Z" fill="#B2C9C6"/>
<path d="M246.855 93.865C246.436 96.3994 246.906 97.2516 247.641 97.3743C248.374 97.497 249.094 96.8408 249.513 94.3082C250.275 89.6911 249.316 87.2385 249.316 87.2385C249.316 87.2385 247.629 89.1798 246.855 93.865Z" fill="#B2C9C6"/>
<path d="M107.903 207.908C107.903 207.908 91.9608 46.9581 34.7089 62.8681C-5.91972 74.1594 86.8379 165.662 94.9959 207.034L107.903 207.908Z" fill="#FF8992"/>
<path d="M231.074 177.821C231.074 177.821 267.235 104.546 290.493 115.135C313.752 125.724 253.334 158.85 243.611 180.516L231.074 177.821Z" fill="#FF8992"/>
<path d="M238.074 179.391C244.519 164.306 256.632 150.267 265.658 141.147C275.444 131.26 283.807 124.867 283.89 124.802L283.496 124.281C283.413 124.344 275.012 130.766 265.196 140.685C256.13 149.846 243.959 163.951 237.475 179.132L238.074 179.391Z" fill="#74A1BD"/>
<path d="M297.247 176.829C286.703 182.755 293.813 199.342 279.974 200.114C266.131 200.879 266.946 199.724 262.468 207.24C262.468 207.24 261.713 213.406 256.87 215.881C237.76 225.648 201.005 204.151 217.034 181.15C218.192 179.49 220.266 178.349 222.6 177.209C235.265 171.036 241.277 175.892 246.955 156.934C252.635 137.972 273.738 156.166 282.415 152.631C291.092 149.094 298.133 143.993 307.977 151.346C317.821 158.705 307.795 170.912 297.247 176.829Z" fill="#BF80EA"/>
<path d="M230.12 200.988L229.504 200.485C229.724 200.213 252.251 172.923 310.398 153.548L310.649 154.306C252.718 173.608 230.339 200.717 230.12 200.988Z" fill="#C0C0C0"/>
<path d="M259.635 167.08C249.781 162.473 246.733 157.35 246.609 157.134L247.296 156.731C247.325 156.783 250.37 161.867 259.973 166.356L259.635 167.08Z" fill="#C0C0C0"/>
<path d="M263.482 174.901C260.141 171.728 258.659 166.131 259.196 158.714C259.598 153.159 261 148.47 261.014 148.424L261.774 148.656C261.718 148.839 256.346 167.026 264.028 174.322L263.482 174.901Z" fill="#C0C0C0"/>
<path d="M278.49 168.837C277.336 168.348 276.686 167.997 276.656 167.982L277.036 167.281C277.172 167.356 290.868 174.699 306.188 169.478L306.443 170.233C294.1 174.44 282.794 170.663 278.49 168.837Z" fill="#C0C0C0"/>
<path d="M291.466 184.148C286.732 181.279 284.521 177.639 283.5 175.091C282.388 172.316 282.403 170.24 282.405 170.153L283.199 170.163C283.199 170.243 283.209 178.213 291.877 183.464L291.466 184.148Z" fill="#C0C0C0"/>
<path d="M14.3531 175.508C24.1322 180.084 18.8938 195.325 31.2666 195.093C43.6427 194.854 42.8398 193.879 47.3228 200.274C47.3228 200.274 48.4024 205.713 52.8769 207.596C70.5339 215.022 101.843 193.44 86.0554 174.025C84.9147 172.623 82.9932 171.747 80.8408 170.888C69.1589 166.233 64.1243 170.956 57.8199 154.454C51.5122 137.948 33.9248 155.55 25.9654 152.978C18.0077 150.407 11.4012 146.332 3.12271 153.532C-5.15749 160.738 4.57234 170.939 14.3531 175.508Z" fill="#8A74EA"/>
<g opacity="0.5">
<g opacity="0.5">
<g opacity="0.5">
<g opacity="0.5">
<path opacity="0.5" d="M75.7127 192.555L76.2288 192.066C76.0149 191.838 54.1584 169.037 1.11284 155.651L0.939697 156.343C53.7867 169.679 75.4988 192.328 75.7127 192.555Z" fill="black"/>
</g>
</g>
</g>
<g opacity="0.5">
<g opacity="0.5">
<g opacity="0.5">
<path opacity="0.5" d="M47.1989 164.328C55.6676 159.571 58.044 154.807 58.1425 154.606L57.5042 154.294C57.4804 154.342 55.1057 159.07 46.8527 163.706L47.1989 164.328Z" fill="#3C6279"/>
</g>
</g>
</g>
<g opacity="0.8">
<g opacity="0.5">
<g opacity="0.5">
<path opacity="0.5" d="M44.2896 171.547C47.0547 168.5 48.0053 163.418 47.0378 156.851C46.313 151.932 44.7564 147.85 44.7411 147.811L44.0791 148.068C44.1402 148.227 50.1238 164.062 43.7651 171.07L44.2896 171.547Z" fill="black"/>
</g>
</g>
</g>
<g opacity="0.8">
<g opacity="0.5">
<g opacity="0.5">
<path opacity="0.5" d="M42.1571 194.481C47.947 190.341 50.4319 185.45 51.4961 182.078C52.6556 178.405 52.4408 175.739 52.431 175.628L51.4156 175.719C51.4229 175.822 52.165 186.065 41.5663 193.644L42.1571 194.481Z" fill="black"/>
</g>
</g>
</g>
<g opacity="0.8">
<g opacity="0.5">
<g opacity="0.5">
<path opacity="0.5" d="M30.5264 167.145C31.5228 166.632 32.0779 166.278 32.1033 166.262L31.718 165.664C31.6009 165.739 19.8918 173.187 5.90817 169.558L5.73163 170.249C16.9977 173.172 26.8158 169.056 30.5264 167.145Z" fill="black"/>
</g>
</g>
</g>
</g>
<g opacity="0.6">
<g opacity="0.6">
<path opacity="0.6" d="M94.0109 203.528C94.0109 203.528 94.0109 127.308 60.8357 116.39C58.6647 115.676 56.2645 115.936 54.3667 117.215C39.7448 127.072 79.4637 177.368 81.6347 202.348L94.0109 203.528Z" fill="#B36167"/>
</g>
</g>
<path d="M95.0485 200.92C95.0485 200.92 55.1938 96.7691 22.2615 108.19C-10.6709 119.611 67.2085 172.313 77.6767 202.984L95.0485 200.92Z" fill="url(#paint0_linear_11_593)"/>
<path d="M85.3406 202.159C78.4948 180.844 63.8152 160.23 52.707 146.691C40.6635 132.012 30.1121 122.261 30.0069 122.164L30.6095 121.504C30.7147 121.601 41.312 131.395 53.3945 146.122C64.5519 159.723 79.2994 180.435 86.1877 201.885L85.3406 202.159Z" fill="#C4C695"/>
<path d="M49.589 218.241C49.5703 218.071 49.6212 217.926 49.7383 217.807C49.9913 217.551 50.5243 217.478 50.9571 217.462C50.436 217.278 49.757 216.97 49.6161 216.58C49.5601 216.425 49.5873 216.269 49.6976 216.121C50.3257 215.267 52.4356 216.639 52.5256 216.697L52.4305 216.844C51.8585 216.469 50.2798 215.627 49.8385 216.225C49.7638 216.326 49.7451 216.423 49.7808 216.52C49.9454 216.977 51.1659 217.369 51.6225 217.483L51.5937 217.655C51.5801 217.653 50.2595 217.529 49.864 217.929C49.7842 218.01 49.7519 218.107 49.7638 218.223L49.589 218.241Z" fill="#42428E"/>
<path d="M276.549 213.075L276.376 213.057C276.387 212.941 276.355 212.844 276.275 212.763C275.88 212.363 274.559 212.487 274.546 212.489L274.517 212.317C274.973 212.204 276.194 211.811 276.357 211.354C276.393 211.255 276.374 211.16 276.299 211.059C275.858 210.459 274.279 211.303 273.707 211.678L273.612 211.531C273.702 211.473 275.81 210.101 276.438 210.955C276.549 211.103 276.576 211.259 276.52 211.414C276.379 211.804 275.7 212.112 275.179 212.297C275.612 212.31 276.145 212.385 276.398 212.641C276.516 212.76 276.567 212.907 276.549 213.075Z" fill="#42428E"/>
<path d="M200.403 220.927C200.33 220.883 198.613 219.837 198.613 218.92C198.613 218.637 198.771 218.398 199.082 218.211C199.425 218.004 199.78 217.955 200.139 218.062C201.009 218.325 201.637 219.433 201.803 219.755C202.687 219.226 203.346 219.099 203.76 219.375C204.353 219.768 204.205 220.82 204.2 220.866L204.028 220.84C204.03 220.83 204.166 219.854 203.665 219.521C203.298 219.279 202.675 219.424 201.813 219.954L201.73 220.005L201.689 219.917C201.682 219.903 201.014 218.511 200.09 218.231C199.78 218.137 199.472 218.182 199.174 218.361C198.916 218.517 198.79 218.7 198.79 218.92C198.79 219.739 200.477 220.767 200.494 220.777L200.403 220.927Z" fill="#42428E"/>
<path d="M223.13 205.69C223.123 205.684 222.442 204.983 221.886 204.099C221.125 202.892 220.945 201.932 221.347 201.249C221.499 200.995 221.68 200.877 221.884 200.9C222.582 200.98 223.345 202.802 223.739 203.886C223.608 202.531 223.459 199.851 224.198 198.945C224.359 198.747 224.554 198.64 224.781 198.626C225.002 198.611 225.182 198.692 225.32 198.861C225.985 199.689 225.384 202.616 225.053 203.984C225.299 203.582 225.651 203.136 226.009 203.085C226.178 203.061 226.313 203.124 226.389 203.264C226.605 203.661 226.307 204.676 225.435 205.685L225.304 205.571C226.161 204.579 226.397 203.642 226.238 203.349C226.197 203.274 226.133 203.246 226.036 203.26C225.576 203.327 225.038 204.329 224.87 204.709L224.707 204.649C224.72 204.603 225.992 199.972 225.187 198.974C225.087 198.849 224.958 198.793 224.795 198.803C224.617 198.813 224.466 198.897 224.337 199.057C223.401 200.204 224.001 204.617 224.006 204.661L223.836 204.7C223.525 203.719 222.566 201.155 221.865 201.075C221.731 201.06 221.612 201.147 221.497 201.339C220.612 202.837 223.228 205.542 223.254 205.569L223.13 205.69Z" fill="#42428E"/>
<path d="M157.924 201.05C157.924 201.05 156.264 199.349 156.834 198.381C157.406 197.413 158.37 200.46 158.37 200.46C158.37 200.46 157.869 196.855 158.907 196.792C159.942 196.729 158.907 200.46 158.907 200.46C158.907 200.46 159.29 199.591 159.665 199.536C160.04 199.482 159.934 200.274 159.263 201.048H157.924V201.05Z" fill="#BED5DC"/>
<path d="M158.042 201.092C157.964 201.012 156.133 199.117 156.798 197.992C156.903 197.815 157.029 197.731 157.173 197.748C157.46 197.781 157.796 198.236 158.173 199.098C158.288 199.36 158.39 199.623 158.47 199.841C158.378 198.897 158.273 197.019 158.789 196.383C158.901 196.245 159.039 196.17 159.197 196.161C159.349 196.153 159.477 196.207 159.572 196.327C160.037 196.905 159.616 198.948 159.385 199.902C159.558 199.623 159.803 199.309 160.052 199.274C160.171 199.257 160.264 199.301 160.317 199.398C160.468 199.676 160.259 200.385 159.65 201.089L159.558 201.009C160.157 200.317 160.322 199.662 160.21 199.456C160.181 199.403 160.137 199.384 160.069 199.393C159.748 199.439 159.373 200.139 159.256 200.405L159.142 200.364C159.144 200.356 159.371 199.534 159.524 198.634C159.723 197.458 159.707 196.686 159.478 196.402C159.409 196.315 159.319 196.276 159.205 196.282C159.081 196.289 158.976 196.347 158.884 196.46C158.231 197.261 158.65 200.342 158.653 200.373L158.535 200.4C158.317 199.715 157.648 197.925 157.16 197.869C157.066 197.859 156.983 197.919 156.903 198.053C156.285 199.1 158.112 200.986 158.131 201.007L158.042 201.092Z" fill="#42428E"/>
<path d="M34.8227 209.396C34.8227 209.396 31.3072 205.798 32.5175 203.747C33.7278 201.697 35.7682 208.15 35.7682 208.15C35.7682 208.15 34.7107 200.521 36.9021 200.388C39.0952 200.255 36.9021 208.15 36.9021 208.15C36.9021 208.15 37.7152 206.309 38.5079 206.195C39.3023 206.081 39.0748 207.756 37.6574 209.394H34.8227V209.396Z" fill="#BED5DC"/>
<path d="M35.0757 209.486C34.9093 209.317 31.0357 205.307 32.4412 202.924C32.6636 202.548 32.9301 202.374 33.2339 202.41C33.8399 202.479 34.5529 203.441 35.3507 205.266C35.5934 205.822 35.809 206.379 35.9787 206.839C35.7852 204.842 35.5594 200.864 36.656 199.521C36.8936 199.229 37.1839 199.071 37.5183 199.05C37.8459 199.032 38.1124 199.147 38.3127 199.398C39.2972 200.622 38.4078 204.946 37.9189 206.969C38.2839 206.376 38.8016 205.714 39.3295 205.638C39.579 205.602 39.7793 205.696 39.8914 205.902C40.2105 206.49 39.7691 207.99 38.4808 209.479L38.2873 209.31C39.5553 207.845 39.9032 206.461 39.6656 206.026C39.6062 205.915 39.5111 205.873 39.3668 205.895C38.6862 205.992 37.8935 207.473 37.6439 208.036L37.4029 207.949C37.408 207.932 37.8884 206.191 38.2109 204.288C38.6318 201.798 38.5996 200.163 38.1141 199.562C37.9647 199.378 37.7763 199.292 37.5353 199.309C37.2722 199.325 37.0498 199.447 36.8563 199.684C35.4746 201.38 36.359 207.899 36.3674 207.966L36.1179 208.022C35.6596 206.572 34.2422 202.783 33.2068 202.665C33.0082 202.641 32.8316 202.771 32.6636 203.056C31.3565 205.269 35.22 209.264 35.2607 209.305L35.0757 209.486Z" fill="#42428E"/>
<path d="M115.516 222.949C115.507 222.94 114.742 222.151 114.114 221.154C113.257 219.794 113.053 218.713 113.508 217.943C113.678 217.655 113.88 217.524 114.114 217.551C114.576 217.604 115.119 218.337 115.728 219.731C115.913 220.155 116.078 220.58 116.207 220.931C116.059 219.407 115.888 216.373 116.723 215.349C116.904 215.126 117.125 215.006 117.38 214.991C117.628 214.977 117.833 215.066 117.986 215.257C118.736 216.191 118.059 219.487 117.685 221.03C117.964 220.576 118.357 220.073 118.761 220.015C118.952 219.988 119.104 220.06 119.189 220.217C119.432 220.665 119.096 221.808 118.113 222.945L117.965 222.816C118.931 221.698 119.198 220.643 119.018 220.31C118.972 220.227 118.901 220.194 118.79 220.21C118.271 220.285 117.667 221.415 117.477 221.843L117.291 221.776C117.295 221.762 117.662 220.436 117.908 218.984C118.228 217.086 118.203 215.84 117.835 215.38C117.721 215.238 117.577 215.177 117.393 215.187C117.193 215.199 117.023 215.293 116.876 215.473C115.821 216.767 116.497 221.739 116.504 221.79L116.314 221.834C115.964 220.728 114.883 217.839 114.093 217.749C113.942 217.73 113.808 217.829 113.679 218.047C112.683 219.736 115.63 222.783 115.66 222.814L115.516 222.949Z" fill="#42428E"/>
<path d="M172.175 196.949C172.175 206.204 179.648 213.706 188.865 213.706C189.237 213.706 194.794 213.73 195.159 213.706C203.86 213.133 205.554 205.83 205.554 196.949C205.554 188.025 203.504 180.703 194.745 180.192C194.419 180.173 189.194 180.192 188.865 180.192C179.649 180.192 172.175 187.694 172.175 196.949Z" fill="#402645"/>
<path d="M195.161 213.706C204.378 213.706 211.85 206.203 211.85 196.949C211.85 187.694 204.378 180.192 195.161 180.192C185.943 180.192 178.471 187.694 178.471 196.949C178.471 206.203 185.943 213.706 195.161 213.706Z" fill="#56335B"/>
<path d="M203.099 204.922C207.484 200.519 207.484 193.379 203.099 188.976C198.713 184.573 191.602 184.573 187.217 188.976C182.831 193.379 182.831 200.519 187.217 204.922C191.602 209.326 198.713 209.326 203.099 204.922Z" fill="#436E8E"/>
<path d="M187.93 82.6418C187.93 82.6418 174.633 92.6293 174.594 94.2996C174.555 95.9698 184.978 99.0223 184.978 99.0223L189.987 90.0694L187.93 82.6418Z" fill="#F7B686"/>
<path d="M200.92 186.951C200.92 186.951 200.856 189.504 199.136 190.223C197.417 190.943 192.431 191.594 194.293 193.233C195.363 194.176 200.399 193.567 201.82 193.567C203.242 193.567 204.576 194.189 205.634 193.233C206.797 192.182 205.634 186.949 205.634 186.949C205.634 186.949 204.407 187.592 203.303 187.563C201.715 187.522 200.92 186.951 200.92 186.951Z" fill="#2F1A31"/>
<path d="M186.446 109.922C186.446 109.922 186.103 121.441 189.764 143.538C192.407 159.491 195.527 175.566 197.058 183.273C197.607 186.031 199.915 188.045 202.652 188.156L204.122 188.216C207.08 188.335 209.482 185.784 209.267 182.748L205.553 130.609L204.638 113.448L186.446 109.922Z" fill="#FA9D4E"/>
<path d="M217.579 186.951C217.579 186.951 217.514 189.504 215.795 190.223C214.075 190.943 209.09 191.594 210.954 193.233C212.022 194.176 217.06 193.567 218.48 193.567C219.903 193.567 221.237 194.189 222.295 193.233C223.457 192.182 222.295 186.949 222.295 186.949C222.295 186.949 221.067 187.592 219.964 187.563C218.372 187.522 217.579 186.951 217.579 186.951Z" fill="#2F1A31"/>
<path d="M202.738 109.922C202.738 109.922 202.395 121.441 206.057 143.538C208.7 159.491 211.82 175.566 213.351 183.273C213.899 186.031 216.207 188.045 218.944 188.156L220.414 188.216C223.372 188.335 225.774 185.784 225.559 182.748L221.845 130.609L220.93 113.448L202.738 109.922Z" fill="#FA9D4E"/>
<path d="M222.729 122.546C222.693 123.935 214.323 124.487 203.972 124.163C193.621 123.839 185.348 122.401 185.383 121.012C185.419 119.623 193.748 118.806 204.101 119.13C214.45 119.454 222.765 121.155 222.729 122.546Z" fill="#2F1A31"/>
<path d="M220.195 83.1991C220.195 83.1991 218.365 75.9148 204.858 75.8415C185.382 75.7341 187.184 93.7047 185.383 121.012C185.383 121.012 204.568 118.288 222.739 122.203C222.738 122.203 224.423 94.3302 220.195 83.1991Z" fill="#FA9D4E"/>
<path d="M225.18 82.1544L216.359 87.0544C216.359 87.0544 197.043 88.815 191.917 87.9679C186.789 87.1191 185.383 83.3389 185.383 83.3389C185.383 83.3389 190.844 77.6651 200.126 76.1517C200.998 76.0085 201.903 75.9028 202.84 75.8415C204.414 75.7392 205.99 75.7614 207.532 75.9352C219.297 77.2663 225.18 82.1544 225.18 82.1544Z" fill="#FA9D4E"/>
<path d="M206.715 74.173L205.695 70.8699L205.398 69.9087L203.653 64.2537L203.424 69.8797L203.286 73.256L203.242 74.3246C203.213 75.0507 202.772 75.2024 202.236 75.833C202.018 76.0886 200.628 77.6379 202.207 78.3367C204.173 79.2076 207.846 77.8884 209.241 76.1602C209.231 76.1568 207.045 75.2416 206.715 74.173Z" fill="#F7B686"/>
<path d="M187.013 122.137C187.013 122.137 198.23 118.823 221.459 123.371L221.638 126.726L187.585 127.935L187.013 122.137Z" fill="#FA9D4E"/>
<path d="M225.364 82.3589C226.112 83.4207 225.01 85.5205 222.902 87.0476C220.796 88.5747 218.482 88.9513 217.733 87.8878C216.985 86.826 218.087 84.7263 220.195 83.1992C222.301 81.6721 224.615 81.2971 225.364 82.3589Z" fill="#2F1A31"/>
<path d="M199.163 62.1301C199.163 62.1301 198.807 63.4987 199.163 65.2149C199.52 66.9312 201.258 62.713 201.258 62.713L199.163 62.1301Z" fill="#56335B"/>
<path d="M198.956 65.7091C199.391 62.3908 201.964 59.9928 204.704 60.3558C207.445 60.7171 209.314 63.6997 208.881 67.0181C208.447 70.3364 205.874 72.7345 203.134 72.3731C200.394 72.0118 198.524 69.0275 198.956 65.7091Z" fill="#F7B686"/>
<path d="M203.656 66.1097C203.631 66.0926 203.612 66.0653 203.609 66.0313C203.604 65.975 203.646 65.9256 203.7 65.9222C203.733 65.9188 204.489 65.7841 204.869 66.5903C204.893 66.6414 204.874 66.7028 204.823 66.7266C204.773 66.7522 204.723 66.7249 204.688 66.6806C204.335 66.2426 203.745 66.1216 203.717 66.125C203.695 66.1267 203.675 66.1216 203.656 66.1097Z" fill="#060633"/>
<path d="M204.096 67.4169C204.031 67.6521 203.843 67.8038 203.673 67.7578C203.504 67.7118 203.419 67.4834 203.482 67.2482C203.546 67.013 203.734 66.8613 203.904 66.9073C204.074 66.9551 204.16 67.1817 204.096 67.4169Z" fill="#060633"/>
<path d="M199.903 65.808C199.88 65.8029 199.859 65.7859 199.849 65.7569C199.83 65.7075 199.849 65.6461 199.888 65.6189C199.912 65.6018 200.433 65.1655 200.921 65.7365C200.952 65.7722 200.953 65.8353 200.923 65.8796C200.892 65.9239 200.848 65.9205 200.811 65.895C200.438 65.6461 199.971 65.7825 199.953 65.7961C199.936 65.8063 199.919 65.8097 199.903 65.808Z" fill="#060633"/>
<path d="M200.828 66.851C200.859 67.0913 200.742 67.3061 200.567 67.3265C200.392 67.3487 200.228 67.1697 200.197 66.9294C200.167 66.6874 200.284 66.4744 200.458 66.4522C200.631 66.4318 200.798 66.6107 200.828 66.851Z" fill="#060633"/>
<path d="M212.217 65.445C212.217 65.445 210.545 69.0701 208.172 69.336C208.172 69.336 210.09 66.5733 206.046 64.8894C206.046 64.8894 209.759 64.3031 212.217 65.445Z" fill="#56335B"/>
<path d="M208.871 67.4442C208.363 67.768 207.718 67.6623 207.43 67.2073C207.141 66.7522 207.319 66.1199 207.827 65.796C208.335 65.4722 208.98 65.5779 209.268 66.033C209.557 66.488 209.378 67.1203 208.871 67.4442Z" fill="#F7B686"/>
<path d="M206.046 64.8893C206.046 64.8893 206.371 67.9316 205.753 68.5077C205.137 69.082 201.064 69.3309 199.163 68.5929C199.131 70.5461 200.502 72.2709 202.422 72.5947C203.057 72.7021 203.714 72.7021 204.366 72.5879C205.697 72.3544 206.99 71.8022 207.538 70.5631C207.705 70.1865 207.219 67.8668 207.219 67.8668C207.219 67.8668 207.038 66.5051 207.825 65.7978C207.827 65.7961 206.917 64.9746 206.046 64.8893Z" fill="#56335B"/>
<path d="M200.166 69.6888C200.166 69.6888 201.726 70.1132 203.432 69.9462C203.432 69.9462 203.183 71.5312 201.456 71.2159C200.453 71.0319 200.166 69.6888 200.166 69.6888Z" fill="white"/>
<path d="M207.679 64.7155C207.679 64.7155 197.486 66.1455 194.239 63.877C190.992 61.6085 199.163 60.6439 199.163 60.6439C199.163 60.6439 206.978 64.7905 207.679 64.7155Z" fill="#FA9D4E"/>
<path d="M199.163 60.6439C199.163 60.6439 201.132 56.4137 206.046 56.562C210.959 56.7103 213.992 60.003 212.217 65.4433C212.217 65.4433 208.323 65.6904 204.227 63.5004C200.131 61.312 199.163 60.6439 199.163 60.6439Z" fill="#D16B54"/>
<path d="M188.856 87.3066C189.413 85.2818 191.294 82.7338 191.313 82.7083L191.134 82.5753C191.116 82.6009 189.209 85.1813 188.641 87.2469L188.856 87.3066Z" fill="#2F1A31"/>
<path d="M206.673 148.039L206.892 148.003C206.877 147.91 205.369 138.517 204.332 135.156C203.285 131.765 198.812 128.935 198.768 128.908L198.651 129.097C198.695 129.124 203.098 131.911 204.122 135.223C205.152 138.567 206.658 147.944 206.673 148.039Z" fill="#2F1A31"/>
<path d="M210.285 120.816L211.38 95.4209C211.46 93.5512 210.248 91.9849 208.73 91.9934L164.252 92.2866C162.843 92.2951 161.689 93.6671 161.628 95.4004L160.753 120.502C160.689 122.353 161.889 123.895 163.391 123.895H207.649C209.051 123.897 210.21 122.542 210.285 120.816Z" fill="#D06B0E"/>
<path d="M196.425 120.816L197.213 95.4209C197.27 93.5513 196.398 91.985 195.303 91.9935L163.269 92.2866C162.254 92.2952 161.422 93.6672 161.379 95.4005L160.75 120.502C160.704 122.353 161.568 123.895 162.649 123.895H194.526C195.537 123.897 196.373 122.542 196.425 120.816Z" fill="#F47A09"/>
<path d="M187.929 91.9936L186.554 123.897H184.202L184.062 92.164L187.929 91.9936Z" fill="#56335B"/>
<path d="M165.222 120.782L174.121 121.208C174.38 121.22 174.594 120.964 174.594 120.645V116.511C174.594 116.19 174.377 115.935 174.117 115.948L165.217 116.436C164.973 116.449 164.781 116.696 164.781 116.998V120.219C164.783 120.523 164.976 120.77 165.222 120.782Z" fill="#DEEBE9"/>
<path d="M199.779 107.638L198.948 105.054C198.936 104.321 201.136 102.288 201.837 102.487C206.985 103.955 212.03 102.85 215.488 99.4859C217.941 97.0998 218.582 91.1687 218.034 88.152C217.752 86.6095 218.26 85.5767 220.117 84.5882C220.117 84.5882 221.714 83.7053 223.683 83.3696C224.472 83.2349 225.255 83.5536 225.459 84.3308C225.778 85.5477 226.19 87.4395 226.385 89.6654C226.852 94.954 225.837 99.554 223.447 102.97C220.514 107.161 210.754 111.534 200.25 110.886C199.465 110.837 199.791 108.429 199.779 107.638Z" fill="#F7B686"/>
<g opacity="0.5">
<g opacity="0.5">
<path opacity="0.5" d="M220.848 101.342C220.556 101.105 220.415 100.723 220.451 100.268C220.485 99.837 220.677 99.3853 220.989 98.9967C221.301 98.6081 221.699 98.3235 222.111 98.1991C222.547 98.0662 222.95 98.1224 223.242 98.3593C223.534 98.5962 223.674 98.978 223.639 99.433C223.605 99.8642 223.413 100.316 223.102 100.704C222.79 101.093 222.391 101.378 221.98 101.502C221.826 101.55 221.677 101.572 221.534 101.572C221.271 101.572 221.037 101.494 220.848 101.342ZM222.215 98.5417C221.872 98.6473 221.534 98.8877 221.267 99.2217C221.001 99.5558 220.838 99.9358 220.807 100.295C220.78 100.63 220.874 100.9 221.072 101.061C221.269 101.221 221.554 101.255 221.873 101.156C222.218 101.05 222.554 100.81 222.821 100.476C223.087 100.142 223.252 99.762 223.281 99.4007C223.308 99.0666 223.214 98.7956 223.016 98.6354C222.892 98.5349 222.734 98.4854 222.556 98.4854C222.449 98.4871 222.333 98.5059 222.215 98.5417Z" fill="#E08B65"/>
</g>
</g>
<path d="M201.837 102.489C201.837 102.489 200.537 98.5382 198.309 97.5701C196.082 96.6021 192.511 97.0571 193.764 97.9502C195.016 98.845 196.933 99.5421 196.933 99.5421C196.933 99.5421 192.771 98.2433 192.889 99.3529C193.008 100.462 196.639 101.557 196.639 101.557C196.639 101.557 191.564 100.408 192.014 101.419C192.463 102.429 196.327 103.275 196.327 103.275C196.327 103.275 191.562 102.395 192.112 103.557C192.662 104.72 196.055 104.258 196.174 105.368C196.293 106.477 197.14 110.84 200.251 110.884L201.837 102.489Z" fill="#F7B686"/>
<path d="M198.418 100.461L198.579 100.384C198.237 99.6598 196.999 99.4621 196.946 99.4536L196.919 99.6308C196.931 99.6342 198.116 99.8234 198.418 100.461Z" fill="#DD8964"/>
<path d="M198.437 102.661L198.581 102.554C197.906 101.647 196.704 101.475 196.653 101.468L196.629 101.645C196.641 101.647 197.807 101.816 198.437 102.661Z" fill="#DD8964"/>
<path d="M197.999 104.294L198.167 104.231C197.866 103.428 196.403 103.196 196.342 103.186L196.315 103.363C196.328 103.367 197.736 103.59 197.999 104.294Z" fill="#DD8964"/>
<path d="M158.609 102.172C158.609 102.172 158.146 104.587 160.344 104.996C163.145 105.517 167.134 103.472 165.364 103.116C163.793 102.801 161.458 102.891 161.458 102.891C161.458 102.891 167.394 102.583 166.908 101.366C166.423 100.151 161.322 100.486 161.322 100.486C161.322 100.486 167.073 99.6375 166.245 98.6388C165.416 97.64 160.782 97.9144 160.782 97.9144C160.782 97.9144 166.447 97.3895 165.457 96.251C164.467 95.1125 161.592 95.98 160.292 96.0686C159.061 96.1521 158.716 96.9753 158.883 98.1598C158.883 98.1598 158.363 99.4364 158.667 100.183C158.783 100.469 158.526 100.779 158.514 100.998C158.491 101.413 158.609 102.172 158.609 102.172Z" fill="#F7B686"/>
<path d="M207.868 91.4363L208.299 79.0406C208.331 78.1288 207.853 77.3635 207.253 77.3686L189.71 77.5118C189.155 77.5169 188.698 78.185 188.675 79.0321L188.33 91.2846C188.305 92.1879 188.778 92.9412 189.371 92.9412H206.827C207.381 92.9412 207.837 92.2799 207.868 91.4363Z" fill="#EF8089"/>
<path d="M201.562 91.436L201.993 79.0403C202.025 78.1284 201.547 77.3632 200.947 77.3683L183.404 77.5115C182.849 77.5166 182.394 78.1847 182.369 79.0318L182.024 91.2843C181.999 92.1876 182.472 92.9409 183.065 92.9409H200.521C201.075 92.9409 201.531 92.2796 201.562 91.436Z" fill="#FF8992"/>
<path d="M192.744 77.3669L192.202 92.9412H190.586L191.274 77.5186L192.744 77.3669Z" fill="#FA9D4E"/>
<path d="M194.801 81.4215L199.858 81.6192C200.09 81.6278 200.285 81.4403 200.285 81.2068V79.4769C200.285 79.2417 200.09 79.0542 199.856 79.0644L194.799 79.2894C194.579 79.2996 194.405 79.4803 194.405 79.7018V81.0091C194.405 81.2306 194.58 81.413 194.801 81.4215Z" fill="#DEEBE9"/>
<path d="M194.397 200.639H217.012C219.04 200.639 220.685 198.987 220.685 196.951C220.685 194.914 219.04 193.262 217.012 193.262H194.397C192.368 193.262 190.723 194.914 190.723 196.951C190.723 198.987 192.368 200.639 194.397 200.639Z" fill="#436E8E"/>
<path d="M194.397 200.814H203.93V200.463H194.397C192.469 200.463 190.898 198.887 190.898 196.951C190.898 195.014 192.469 193.438 194.397 193.438V193.087C192.275 193.087 190.549 194.82 190.549 196.951C190.549 199.081 192.275 200.814 194.397 200.814Z" fill="#2F1A31"/>
<path d="M214.391 196.949C214.391 206.204 221.863 213.706 231.081 213.706C231.452 213.706 237.01 213.73 237.375 213.706C246.076 213.133 247.77 205.83 247.77 196.949C247.77 188.025 245.719 180.703 236.961 180.192C236.635 180.173 231.41 180.192 231.081 180.192C221.863 180.192 214.391 187.694 214.391 196.949Z" fill="#402645"/>
<path d="M237.377 213.706C246.594 213.706 254.066 206.203 254.066 196.949C254.066 187.694 246.594 180.192 237.377 180.192C228.159 180.192 220.687 187.694 220.687 196.949C220.687 206.203 228.159 213.706 237.377 213.706Z" fill="#56335B"/>
<path d="M239.955 207.898C245.991 206.467 249.729 200.394 248.303 194.334C246.878 188.273 240.829 184.52 234.793 185.951C228.757 187.382 225.019 193.455 226.445 199.516C227.87 205.577 233.919 209.33 239.955 207.898Z" fill="#436E8E"/>
<path d="M237.997 200.739C240.083 200.399 241.499 198.426 241.161 196.331C240.822 194.237 238.857 192.815 236.771 193.155C234.685 193.495 233.269 195.468 233.607 197.562C233.946 199.657 235.911 201.079 237.997 200.739Z" fill="#DEEBE9"/>
<path d="M192.312 132.134H196.823C197.967 154.371 203.422 174.862 212.307 193.963H207.797C198.81 175.254 193.791 154.574 192.312 132.134Z" fill="#436E8E"/>
<path d="M180.379 134.27H209.409C210.631 134.27 211.623 133.274 211.623 132.047C211.623 130.82 210.631 129.825 209.409 129.825H180.379C179.157 129.825 178.166 130.82 178.166 132.047C178.166 133.274 179.157 134.27 180.379 134.27Z" fill="#436E8E"/>
<path d="M203.375 134.878H213.637C214.401 134.878 215.021 134.256 215.021 133.489V130.779C215.021 130.012 214.401 129.39 213.637 129.39H203.375C202.611 129.39 201.991 130.012 201.991 130.779V133.489C201.993 134.256 202.611 134.878 203.375 134.878Z" fill="#56335B"/>
<path d="M176.219 134.878H186.481C187.245 134.878 187.865 134.256 187.865 133.489V130.779C187.865 130.012 187.245 129.39 186.481 129.39H176.219C175.455 129.39 174.835 130.012 174.835 130.779V133.489C174.835 134.256 175.455 134.878 176.219 134.878Z" fill="#56335B"/>
<path d="M136.565 101.87C136.565 101.87 140.023 96.6976 143.538 95.1057C147.053 93.5122 149.282 94.8348 149.282 94.8348L153.054 93.323C153.054 93.323 153.595 107.692 143.791 105.16C143.017 104.959 136.565 101.87 136.565 101.87Z" fill="#FFB27D"/>
<path d="M150.984 85.1831C150.974 84.8252 150.677 84.5439 150.321 84.5542C149.965 84.5644 149.685 84.8627 149.695 85.2206C149.705 85.5785 150.002 85.8597 150.358 85.8495C150.713 85.8392 150.993 85.541 150.984 85.1831Z" fill="#100B47"/>
<path d="M69.0485 139.485C68.58 139.589 68.2813 140.06 68.3865 140.53L70.0025 147.831C70.1061 148.302 70.5746 148.602 71.0431 148.496C71.5116 148.392 71.8103 147.922 71.7051 147.451L70.0891 140.15C69.9838 139.68 69.5153 139.381 69.0485 139.485Z" fill="#FFB27D"/>
<path d="M71.2282 138.999C70.7597 139.103 70.4609 139.574 70.5662 140.044L72.3739 148.21C72.4775 148.68 72.946 148.98 73.4145 148.874C73.883 148.77 74.1817 148.3 74.0765 147.83L72.2687 139.664C72.1652 139.194 71.6967 138.894 71.2282 138.999Z" fill="#FFB27D"/>
<path d="M70.8157 134.691L70.7359 134.79C70.3387 135.282 70.4168 136.01 70.9074 136.409L75.1595 139.862C75.6501 140.261 76.3749 140.182 76.7721 139.69L76.8519 139.591C77.2491 139.098 77.171 138.371 76.6804 137.972L72.4283 134.519C71.9377 134.12 71.2129 134.198 70.8157 134.691Z" fill="#FFB27D"/>
<path d="M73.4093 138.512C72.9408 138.616 72.6421 139.086 72.7473 139.557L74.1969 146.102C74.3005 146.572 74.769 146.872 75.2375 146.766C75.706 146.662 76.0047 146.192 75.8995 145.721L74.4499 139.177C74.3463 138.706 73.8778 138.408 73.4093 138.512Z" fill="#FFB27D"/>
<path d="M66.6483 135.657C66.6483 135.657 65.1155 140.423 67.0981 143.371C67.7839 144.392 74.1647 142.781 74.4838 141.44C74.8046 140.099 73.3957 135.775 73.3957 135.775L66.6483 135.657Z" fill="#FFB27D"/>
<path d="M66.8809 139.962C66.4141 140.066 66.1153 140.537 66.2206 141.005L67.6668 147.536C67.7704 148.005 68.2389 148.305 68.7057 148.199C69.1725 148.096 69.4712 147.625 69.366 147.156L67.9197 140.625C67.8162 140.157 67.3477 139.858 66.8809 139.962Z" fill="#FFB27D"/>
<path d="M74.7452 136.644C75.6262 126.912 77.6445 113 82.2683 101.981C83.3394 99.428 83.7859 98.4702 84.621 97.076C85.2932 95.9546 84.0897 93.4884 82.1902 92.3124C80.4079 91.2097 77.6343 91.3903 77.1946 91.9357C76.4477 92.8646 75.6516 94.6439 74.4125 97.4697C70.1043 107.288 67.5242 119.97 66.4786 136.322L74.7452 136.644Z" fill="#FFB27D"/>
<path d="M80.228 134.045C80.267 135.552 89.3399 136.15 100.564 135.799C111.785 135.448 120.755 133.888 120.716 132.381C120.677 130.875 111.646 129.99 100.424 130.341C89.2007 130.694 80.1889 132.538 80.228 134.045Z" fill="#331832"/>
<path d="M117.659 111.271C123.226 112.333 134.229 114.511 142.455 108.694C147.099 105.41 150.802 100.825 150.956 100.711L144.874 91.968L147.914 96.3396L144.882 91.9612C141.715 94.2723 136.477 101.32 129.135 99.5046C125.801 98.6797 121.923 98.1701 117.908 92.1845L107.314 95.9221C110.645 102.641 109.674 110.077 117.659 111.271Z" fill="url(#paint1_linear_11_593)"/>
<path d="M82.9743 91.3902C82.9743 91.3902 84.9586 83.4923 99.6009 83.4122C120.716 83.2963 118.76 102.777 120.714 132.381C120.714 132.381 107.912 127.016 80.2261 134.045C80.2278 134.045 78.3894 103.457 82.9743 91.3902Z" fill="url(#paint2_linear_11_593)"/>
<path d="M77.5698 90.2569L87.1332 95.5693C87.1332 95.5693 108.528 100.309 114.087 99.3888C119.646 98.4684 120.716 96.188 120.716 96.188C120.716 96.188 114.795 85.3893 104.732 83.748C103.787 83.5929 102.806 83.4787 101.789 83.4122C100.083 83.3015 98.3738 83.3253 96.7018 83.5145C83.9488 84.9581 77.5698 90.2569 77.5698 90.2569Z" fill="url(#paint3_linear_11_593)"/>
<path d="M77.5697 90.2569C77.5697 90.2569 72.737 93.127 68.0368 111.984C63.3365 130.839 66.8689 131.182 66.8689 131.182C66.8689 131.182 73.2106 131.304 75.2493 130.573C77.2879 129.842 78.3794 112.945 82.4465 106.075C86.5136 99.203 87.9683 88.6803 77.5697 90.2569Z" fill="url(#paint4_linear_11_593)"/>
<path d="M97.588 81.6057L98.693 78.0248L99.0138 76.9818L100.905 70.8513L101.154 76.9494L101.304 80.6103L101.351 81.7693C101.383 82.555 101.86 82.7203 102.441 83.4055C102.677 83.6816 104.183 85.362 102.473 86.1205C100.343 87.0664 96.3607 85.6347 94.8466 83.76C94.8601 83.7549 97.2315 82.7629 97.588 81.6057Z" fill="#FFB27D"/>
<path d="M105.775 68.5469C105.775 68.5469 106.16 70.0314 105.775 71.8909C105.389 73.752 103.504 69.1775 103.504 69.1775L105.775 68.5469Z" fill="#5C305D"/>
<path d="M101.475 79.6493C104.447 79.2575 106.474 76.0232 106.004 72.4254C105.533 68.8276 102.743 66.2287 99.771 66.6205C96.7994 67.0123 94.7718 70.2465 95.2424 73.8443C95.7129 77.4421 98.5034 80.0411 101.475 79.6493Z" fill="#FFB27D"/>
<path d="M100.904 72.8624C100.933 72.8436 100.952 72.8146 100.955 72.7789C100.96 72.7175 100.916 72.6647 100.855 72.6596C100.819 72.6561 99.9999 72.5096 99.5877 73.3839C99.5622 73.4384 99.5826 73.5049 99.6369 73.5322C99.6911 73.5594 99.7454 73.5305 99.7844 73.4828C100.168 73.0072 100.807 72.8777 100.836 72.8794C100.86 72.8811 100.884 72.876 100.904 72.8624Z" fill="#080435"/>
<path d="M100.428 74.2804C100.497 74.5344 100.701 74.6997 100.886 74.6503C101.069 74.5991 101.162 74.3537 101.093 74.0981C101.023 73.8441 100.82 73.6788 100.635 73.7282C100.451 73.7793 100.358 74.0248 100.428 74.2804Z" fill="#080435"/>
<path d="M104.973 72.5351C104.998 72.53 105.02 72.5113 105.032 72.4806C105.051 72.4278 105.032 72.3613 104.99 72.3306C104.964 72.3136 104.4 71.8398 103.869 72.4584C103.835 72.4976 103.833 72.5658 103.867 72.6135C103.899 72.6612 103.948 72.6578 103.989 72.6306C104.394 72.3613 104.898 72.5096 104.92 72.5232C104.937 72.5334 104.956 72.5385 104.973 72.5351Z" fill="#080435"/>
<path d="M103.97 73.6669C103.938 73.9276 104.064 74.1594 104.254 74.1833C104.442 74.2072 104.622 74.0146 104.654 73.7521C104.686 73.4913 104.561 73.2595 104.371 73.2357C104.182 73.2135 104.003 73.4061 103.97 73.6669Z" fill="#080435"/>
<path d="M91.623 72.1414C91.623 72.1414 93.4359 76.0717 96.0093 76.3597C96.0093 76.3597 93.9299 73.3652 98.3127 71.5398C98.3144 71.5398 94.2881 70.9041 91.623 72.1414Z" fill="#5C305D"/>
<path d="M95.2506 74.3093C95.8005 74.6604 96.4999 74.5462 96.8122 74.052C97.1246 73.5577 96.9327 72.8726 96.3828 72.5215C95.8328 72.1704 95.1334 72.2846 94.8211 72.7788C94.5088 73.2731 94.7006 73.9582 95.2506 74.3093Z" fill="#FFB27D"/>
<path d="M98.3145 71.5399C98.3145 71.5399 97.9631 74.8378 98.6319 75.4616C99.3007 76.0853 103.716 76.3529 105.775 75.5536C105.809 77.6721 104.322 79.5418 102.241 79.8929C101.552 80.0087 100.84 80.0105 100.133 79.886C98.6897 79.6321 97.2876 79.0339 96.6935 77.6908C96.5118 77.2818 97.0397 74.7679 97.0397 74.7679C97.0397 74.7679 97.2383 73.2919 96.3828 72.525C96.3828 72.5233 97.3707 71.6319 98.3145 71.5399Z" fill="#5C305D"/>
<path d="M98.3143 71.5398C98.3143 71.5398 97.9511 69.2338 99.7521 69.0685C101.553 68.9049 103.607 68.5998 104.313 69.0685C105.019 69.5372 105.863 71.3762 105.863 71.3762C105.863 71.3762 106.851 67.9181 105.041 66.4387C103.232 64.9593 97.4605 63.013 93.777 65.5882C90.0936 68.1635 91.6247 72.1415 91.6247 72.1415C91.6247 72.1415 94.254 71.3353 98.3143 71.5398Z" fill="#331832"/>
<path d="M95.8158 65.5881C95.8158 65.5881 93.1016 63.3367 93.7143 61.6715C94.3288 60.0064 97.2026 60.5331 98.3128 60.7938C99.4229 61.0546 99.6113 63.0453 98.7202 64.3303C97.829 65.6171 95.8158 65.5881 95.8158 65.5881Z" fill="#331832"/>
<path d="M99.9965 206.642C101.298 206.57 102.509 207.248 103.147 208.39C103.447 208.927 103.885 209.414 104.524 209.682C106.484 210.502 112.162 211.243 110.04 213.113C108.823 214.185 103.084 213.493 101.465 213.493C99.8455 213.493 98.3228 214.202 97.1193 213.113C96.3979 212.46 96.4624 210.396 96.6712 208.651C96.8206 207.391 97.9528 206.459 99.2055 206.621C99.3956 206.645 99.5874 206.659 99.7759 206.653C99.8506 206.648 99.9252 206.647 99.9965 206.642Z" fill="#331832"/>
<path d="M79.9837 205.951C79.9837 205.951 80.0567 208.859 82.0155 209.68C83.9761 210.5 89.6541 211.242 87.5323 213.111C86.3152 214.183 80.5761 213.491 78.9567 213.491C77.3373 213.491 75.8147 214.2 74.6112 213.111C73.2872 211.913 74.6112 205.953 74.6112 205.953C74.6112 205.953 76.0099 206.684 77.266 206.652C79.0789 206.602 79.9837 205.951 79.9837 205.951Z" fill="#331832"/>
<path d="M114.641 132.797C115.527 132.893 116.228 133.586 116.335 134.474C116.548 136.245 116.582 139.984 115.527 147.744C113.975 159.143 108.105 200.743 107.131 206.287C106.783 208.271 106.382 209.491 103.52 209.909L99.7182 209.834C96.622 210.285 95.4304 206.95 95.4083 204.814L97.8968 140.734L88.0023 133.153C88.0023 133.153 95.4083 132.202 103.78 132.209C108.508 132.214 112.632 132.583 114.641 132.797Z" fill="#434A89"/>
<path d="M105.33 134.924L83.5194 205.271C82.6062 208.216 79.9667 210.233 76.9588 210.285L75.6483 210.308C72.5539 210.36 70.1876 207.487 70.7512 204.359L82.6826 138.26C82.8557 137.474 83.2988 134.001 84.0541 133.783C88.1433 132.598 105.731 132.015 105.33 134.924Z" fill="#434A89"/>
<path d="M95.5815 166.366L95.2335 166.25L99.9236 151.934C101.007 148.627 103.235 145.868 106.199 144.164L106.381 144.482C103.497 146.142 101.327 148.828 100.272 152.048L95.5815 166.366Z" fill="#020202"/>
<path d="M90.187 85.2018C90.187 85.2018 87.9107 83.0901 90.6487 82.347C91.73 82.0522 93.3443 79.3695 94.8482 79.6013C96.3538 79.8331 97.2399 88.3412 103.279 90.9727C103.279 90.9727 104.766 92.2731 102.346 92.2152C99.927 92.1572 90.187 85.2018 90.187 85.2018Z" fill="#92BCB5"/>
<path d="M152.494 85.8308L148.89 106.658C148.654 108.021 147.344 108.92 145.994 108.645L136.339 106.682C135.041 106.418 134.188 105.165 134.414 103.854L137.965 83.3288C138.196 81.9943 139.457 81.0995 140.786 81.3279L150.492 82.9896C151.828 83.218 152.725 84.4911 152.494 85.8308Z" fill="#060423"/>
<path d="M154.716 93.8105C154.716 93.8105 155.986 91.0119 153.434 89.8666C150.184 88.406 144.738 89.7166 146.785 90.6711C148.6 91.5164 151.465 92.0976 151.465 92.0976C151.465 92.0976 144.161 90.7222 144.395 92.343C144.63 93.9639 150.925 95.0598 150.925 95.0598C150.925 95.0598 143.689 94.3951 144.404 95.854C145.118 97.3129 150.83 98.344 150.83 98.344C150.83 98.344 143.793 97.3112 144.663 98.9866C145.533 100.662 149.281 100.456 150.888 100.732C152.407 100.993 153.066 100.094 153.214 98.6048C153.214 98.6048 154.217 97.2072 154.069 96.2102C154.011 95.8284 154.415 95.5268 154.493 95.266C154.638 94.7649 154.716 93.8105 154.716 93.8105Z" fill="#FFB27D"/>
<path d="M103.281 90.9711C103.281 90.9711 106.303 87.9868 105.777 85.2019C105.249 82.417 106.787 80.0343 107.535 81.2921C108.284 82.5516 109.149 81.7693 109.321 83.3459C109.492 84.9241 107.158 92.6771 105.042 92.6771C102.923 92.6771 103.281 90.9711 103.281 90.9711Z" fill="#92BCB5"/>
<path d="M102.597 91.559C102.597 91.559 100.643 92.4402 101.368 94.5297C102.093 96.6175 101.08 97.4612 101.08 97.4612C101.08 97.4612 103.448 97.5771 103.733 95.3393C104.018 93.1015 102.597 91.559 102.597 91.559Z" fill="#92BCB5"/>
<path d="M103.706 91.559C103.706 91.559 106.186 92.4078 106.292 94.0286C106.399 95.6494 104.979 96.0346 104.478 95.07C103.979 94.1053 102.942 92.2169 102.942 92.2169L103.706 91.559Z" fill="#92BCB5"/>
<path d="M96.6949 77.6891C96.6949 77.6891 96.7119 79.9576 98.3143 81.2307C99.9167 82.5038 98.8557 83.6134 100.266 85.4217C101.675 87.23 99.9981 87.2709 102.495 88.585C104.992 89.9007 106.875 88.7077 106.382 86.6948C105.892 84.682 108.059 85.2155 107.037 82.6675C106.014 80.1195 105.27 81.6807 106.133 78.969C106.997 76.2574 105.776 75.5518 105.776 75.5518C105.776 75.5518 104.396 75.6473 103.283 75.8467C102.167 76.0478 101.166 75.695 100.389 75.9455C99.6077 76.1978 96.6949 77.6891 96.6949 77.6891Z" fill="#5C305D"/>
<path d="M104.687 76.7432C104.687 76.7432 102.994 77.2033 101.148 77.0227C101.148 77.0227 101.419 78.7406 103.29 78.3981C104.376 78.2004 104.687 76.7432 104.687 76.7432Z" fill="white"/>
<path d="M66.4787 132.811C66.4787 132.811 72.1788 133.425 75.1324 132.811C75.1324 132.811 75.516 134.335 74.8981 135.032C74.8981 135.032 68.0693 135.552 66.4787 135.032C66.4787 135.032 65.3024 133.888 66.4787 132.811Z" fill="#331832"/>
<path d="M70.1756 136.295H70.0856C68.9602 136.295 68.0385 135.369 68.0385 134.239V133.835C68.0385 132.705 68.9602 131.78 70.0856 131.78H70.1756C71.301 131.78 72.2227 132.705 72.2227 133.835V134.239C72.221 135.369 71.301 136.295 70.1756 136.295Z" fill="#5C305D"/>
<path d="M103.77 103.759C103.77 103.36 104.092 103.036 104.489 103.036C104.886 103.036 105.209 103.36 105.209 103.759C105.209 104.158 104.886 104.481 104.489 104.481C104.092 104.481 103.77 104.158 103.77 103.759Z" fill="#5C305D"/>
<path d="M103.77 112.565C103.77 112.166 104.092 111.842 104.489 111.842C104.886 111.842 105.209 112.166 105.209 112.565C105.209 112.964 104.886 113.288 104.489 113.288C104.092 113.288 103.77 112.964 103.77 112.565Z" fill="#5C305D"/>
<path d="M103.77 123.004C103.77 122.605 104.092 122.282 104.489 122.282C104.886 122.282 105.209 122.605 105.209 123.004C105.209 123.403 104.886 123.727 104.489 123.727C104.092 123.729 103.77 123.405 103.77 123.004Z" fill="#5C305D"/>
<path d="M80.0414 112.857L79.6849 112.77C81.0667 106.876 83.4448 101.376 83.4703 101.32L83.8047 101.47C83.7809 101.521 81.4164 106.994 80.0414 112.857Z" fill="#4D4D4D"/>
<path d="M119.351 111.854C118.95 105.294 115.703 96.8663 115.671 96.7828L116.012 96.6482C116.046 96.7317 119.314 105.213 119.718 111.829L119.351 111.854Z" fill="#4D4D4D"/>
<defs>
<linearGradient id="paint0_linear_11_593" x1="54.4322" y1="189.519" x2="-17.9637" y2="130.665" gradientUnits="userSpaceOnUse">
<stop stop-color="#DC9BE7"/>
<stop offset="1" stop-color="#9357A8"/>
</linearGradient>
<linearGradient id="paint1_linear_11_593" x1="129.135" y1="91.9612" x2="129.135" y2="112.565" gradientUnits="userSpaceOnUse">
<stop stop-color="#6F6BDE"/>
<stop offset="1" stop-color="#A27DF5"/>
</linearGradient>
<linearGradient id="paint2_linear_11_593" x1="100.289" y1="83.4117" x2="100.289" y2="134.045" gradientUnits="userSpaceOnUse">
<stop stop-color="#6F6BDE"/>
<stop offset="1" stop-color="#A27DF5"/>
</linearGradient>
<linearGradient id="paint3_linear_11_593" x1="99.4625" y1="107.659" x2="102.944" y2="69.4591" gradientUnits="userSpaceOnUse">
<stop stop-color="#6F6BDE"/>
<stop offset="1" stop-color="#A27DF5"/>
</linearGradient>
<linearGradient id="paint4_linear_11_593" x1="99.9573" y1="71.938" x2="75.4445" y2="131.144" gradientUnits="userSpaceOnUse">
<stop stop-color="#6F6BDE"/>
<stop offset="1" stop-color="#A27DF5"/>
</linearGradient>
</defs>
</svg>
