<svg width="256" height="256" viewBox="0 0 256 256" fill="none" xmlns="http://www.w3.org/2000/svg">
<path d="M245.113 75.4435C251.862 13.8337 192.268 -7.57016 150.021 8.20436C107.429 24.1072 97.5561 -2.25425 37.6677 5.27745C-22.9723 12.9045 7.81531 108.311 7.81531 108.311C7.81531 108.311 17.4638 191.274 28.8951 229.515C40.2642 267.549 149.093 253.789 175.568 252.653C201.891 251.524 224.763 253.703 247.664 211.942C270.523 170.257 238.385 136.849 245.113 75.4435Z" fill="#F4F7FA"/>
<path d="M173.014 14.7015C169.879 11.3457 164.763 9.08224 160.31 8.18786C128.737 1.84745 115.584 68.0025 118.566 83.5443C121.549 99.087 117.761 103.58 91.6736 108.174C65.5863 112.767 75.7102 129.335 77.6494 138.514C79.5886 147.693 84.6985 155.892 65.2937 162.283C45.8889 168.674 51.5566 174.898 51.5566 174.898C51.5566 174.898 80.885 213.801 80.4325 202.489C79.9799 191.177 85.4857 174.89 115.893 177.491C128.99 178.611 149.733 174.935 155.932 161.52C157.376 158.396 158.725 153.514 158.372 150.045C157.882 145.232 155.29 141.156 154.15 136.539C151.495 125.78 162.386 119.543 168.976 113.422C172.417 110.226 175.867 106.938 178.673 103.152C184.497 95.2904 183.878 85.9809 179.706 77.5127C177.704 73.4522 174.767 69.0399 174.255 64.436C173.705 59.4912 175.551 53.0674 176.456 48.1685C177.166 44.3261 178.024 40.5186 178.301 36.6111C178.817 29.3433 178.255 20.3106 173.014 14.7015Z" fill="#D8DEE8"/>
<g opacity="0.8">
<g opacity="0.8">
<path opacity="0.8" d="M46.4311 193.969C46.2034 194.019 45.9666 193.894 45.8834 193.669C45.792 193.422 45.9182 193.148 46.1641 193.058C46.315 193.002 61.4711 187.332 78.8846 177.028C94.9303 167.533 116.23 152.051 126.584 132.208C135.231 115.636 144.76 87.6295 152.726 55.3703C159.87 26.443 163.174 4.79544 162.241 0.579191C162.184 0.322605 162.346 0.0678525 162.602 0.0110371C162.858 -0.0457783 163.112 0.11642 163.169 0.373006C164.26 5.30495 160.078 29.5633 153.648 55.5994C145.664 87.9292 136.106 116.013 127.426 132.65C116.966 152.696 95.5099 168.298 79.3527 177.857C61.8679 188.201 46.645 193.894 46.4933 193.951C46.4731 193.959 46.4521 193.964 46.4311 193.969Z" fill="white"/>
</g>
<g opacity="0.8">
<path opacity="0.8" d="M151.949 61.0564C151.694 61.1132 151.454 61.0133 151.397 60.7577C151.32 60.4195 143.523 26.8719 129.128 17.6797C128.907 17.5386 128.845 17.2591 128.987 17.0373C129.127 16.8156 129.423 16.7578 129.644 16.899C144.368 26.3001 152.005 59.1448 152.323 60.5414C152.381 60.798 152.209 60.9987 151.953 61.0555C151.952 61.0555 151.95 61.0555 151.949 61.0564Z" fill="white"/>
</g>
<g opacity="0.8">
<path opacity="0.8" d="M141.425 97.4567C141.235 97.4989 141.03 97.42 140.921 97.2459C140.781 97.0233 140.848 96.7291 141.07 96.5898C141.166 96.5293 150.827 90.4583 162.385 85.8059C178.003 79.5195 189.466 78.6737 196.455 83.2923C196.675 83.4371 196.735 83.7321 196.591 83.9521C196.446 84.1711 196.152 84.2325 195.932 84.0877C179.851 73.4623 141.957 97.1552 141.576 97.3962C141.529 97.4246 141.477 97.4457 141.425 97.4567Z" fill="white"/>
</g>
<g opacity="0.8">
<path opacity="0.8" d="M93.6814 168.504C93.632 168.515 93.579 168.518 93.5259 168.513C93.2654 168.483 93.0779 168.248 93.1072 167.987C93.1227 167.849 94.6313 154.076 93.6055 139.23C92.6656 125.618 89.3513 108.294 78.8992 103.062C78.6642 102.945 78.5691 102.659 78.6862 102.423C78.8032 102.188 79.0885 102.093 79.3234 102.21C88.0393 106.573 93.163 119.01 94.5536 139.177C95.5831 154.107 94.0663 167.955 94.0508 168.092C94.027 168.3 93.8743 168.461 93.6814 168.504Z" fill="white"/>
</g>
<g opacity="0.8">
<path opacity="0.8" d="M115.976 148.795C115.777 148.839 115.564 148.75 115.459 148.562C115.331 148.333 115.412 148.043 115.642 147.914C117.301 146.984 156.449 125.195 170.085 129.499C170.335 129.578 170.474 129.845 170.395 130.096C170.316 130.347 170.049 130.487 169.798 130.407C156.549 126.225 116.507 148.52 116.104 148.745C116.064 148.769 116.021 148.786 115.976 148.795Z" fill="white"/>
</g>
</g>
<path d="M218.363 45.4468C216.027 41.4908 211.521 38.1708 207.366 36.3316C177.911 23.2916 150.783 85.0242 150.338 100.845C149.893 116.667 145.224 120.231 118.764 119.057C92.3035 117.881 98.6085 136.252 98.5198 145.635C98.4311 155.018 101.649 164.13 81.3239 166.16C60.9993 168.188 65.1886 175.494 65.1886 175.494C65.1886 175.494 85.4199 219.837 87.4213 208.696C89.4226 197.554 98.315 182.847 127.44 191.984C139.984 195.919 161.029 196.83 169.979 185.078C172.062 182.342 174.434 177.869 174.838 174.404C175.399 169.598 173.749 165.058 173.634 160.303C173.365 149.222 185.345 145.496 193.101 140.95C197.15 138.576 201.229 136.116 204.785 133.028C212.169 126.617 213.575 117.392 211.33 108.22C210.253 103.822 208.338 98.8771 208.833 94.2714C209.364 89.3239 212.554 83.4536 214.495 78.8671C216.017 75.2703 217.678 71.7386 218.792 67.9842C220.867 60.9996 222.268 52.0603 218.363 45.4468Z" fill="url(#paint0_linear_12_823)"/>
<g opacity="0.8">
<g opacity="0.8">
<path opacity="0.8" d="M56.0658 193.001C55.8318 193.001 55.6288 192.828 55.5959 192.589C55.5602 192.329 55.7422 192.089 56.0018 192.053C56.1618 192.031 72.182 189.784 91.4085 183.503C109.124 177.715 133.263 167.221 147.656 150.094C159.677 135.791 175.028 110.516 189.774 80.7494C202.995 54.058 210.896 33.6402 210.896 29.3214C210.896 29.0584 211.11 28.8458 211.371 28.8458C211.632 28.8458 211.846 29.0593 211.846 29.3214C211.846 34.3734 202.523 57.149 190.624 81.1727C175.846 111.004 160.451 136.349 148.383 150.707C133.842 168.009 109.525 178.586 91.6873 184.413C72.3831 190.718 56.2917 192.974 56.1317 192.996C56.1088 193 56.0869 193.001 56.0658 193.001Z" fill="white"/>
</g>
<g opacity="0.8">
<path opacity="0.8" d="M187.787 86.2036C187.526 86.2036 187.313 86.0185 187.312 85.7565C187.31 85.4101 186.944 50.9479 174.875 38.8508C174.689 38.6648 174.689 38.3697 174.875 38.1837C175.06 37.9976 175.361 38.0013 175.547 38.1873C187.891 50.5602 188.253 84.3168 188.262 85.7482C188.264 86.0112 188.053 86.2027 187.791 86.2027C187.789 86.2036 187.788 86.2036 187.787 86.2036Z" fill="white"/>
</g>
<g opacity="0.8">
<path opacity="0.8" d="M169.651 119.387C169.456 119.387 169.274 119.266 169.204 119.071C169.115 118.824 169.244 118.551 169.491 118.463C169.598 118.424 180.341 114.593 192.631 112.559C209.235 109.809 220.609 111.471 226.436 117.496C226.619 117.685 226.613 117.986 226.426 118.17C226.237 118.353 225.936 118.347 225.754 118.16C212.348 104.297 170.235 119.207 169.812 119.359C169.758 119.378 169.704 119.387 169.651 119.387Z" fill="white"/>
</g>
<g opacity="0.8">
<path opacity="0.8" d="M107.695 178.391C107.643 178.391 107.592 178.383 107.541 178.365C107.293 178.28 107.161 178.01 107.246 177.761C107.291 177.63 111.738 164.511 113.943 149.794C115.965 136.301 116.471 118.668 107.396 111.292C107.192 111.126 107.161 110.827 107.326 110.622C107.492 110.418 107.791 110.387 107.995 110.553C115.561 116.702 117.878 129.957 114.881 149.948C112.662 164.748 108.19 177.938 108.145 178.069C108.077 178.267 107.892 178.391 107.695 178.391Z" fill="white"/>
</g>
<g opacity="0.8">
<path opacity="0.8" d="M133.718 163.987C133.513 163.987 133.325 163.854 133.264 163.648C133.188 163.396 133.33 163.131 133.582 163.055C135.403 162.507 178.329 149.727 190.711 156.887C190.939 157.018 191.016 157.31 190.885 157.538C190.754 157.766 190.463 157.844 190.235 157.712C178.203 150.755 134.296 163.834 133.854 163.966C133.809 163.98 133.764 163.987 133.718 163.987Z" fill="white"/>
</g>
</g>
<path d="M151.195 69.3221L104.623 16.2089C102.689 14.1324 98.7401 14.607 95.9351 14.4659C93.1182 14.3239 90.4046 15.3154 88.4069 17.2196L33.9977 68.9848C30.1568 72.6467 27.8757 77.6116 27.8757 82.7855V228.089C27.8757 237.311 35.883 243.921 45.4903 242.719L141.313 230.743C149.503 229.717 156.014 222.028 156.014 213.662V81.717C156.015 77.0975 154.301 72.6568 151.195 69.3221ZM95.5291 75.9145C88.4334 75.9328 82.6249 70.2229 82.6249 63.1622C82.6249 56.1006 88.4334 50.474 95.5291 50.5932C102.549 50.7114 108.184 56.4195 108.184 63.3436C108.184 70.2687 102.548 75.8962 95.5291 75.9145Z" fill="url(#paint1_linear_12_823)"/>
<path d="M155.708 69.3321L136.688 48.8942L108.129 18.136C106.207 16.0714 103.556 14.8215 100.772 14.6822C97.9739 14.5401 95.2777 15.5262 93.2937 17.4231L66.5509 42.9927L39.4533 69.0022C35.6425 72.6467 33.5406 77.5979 33.5406 82.7534V227.512C33.5406 236.701 41.4327 243.262 50.9632 242.065L76.3977 238.875L120.74 233.31L145.885 230.18C154.021 229.161 160.585 221.472 160.585 213.136V81.6812C160.585 77.0764 158.795 72.6531 155.708 69.3321ZM100.357 50.6756C107.324 50.7911 112.919 56.4781 112.919 63.3784C112.919 70.276 107.324 75.8861 100.357 75.9026C93.3148 75.9227 87.5493 70.232 87.5493 63.197C87.5493 56.1638 93.3157 50.5565 100.357 50.6756Z" fill="url(#paint2_linear_12_823)"/>
<path d="M132.574 93.1543H96.3264L66.3698 157.148L81.291 156.234L61.3001 221.945L131.121 133.485L109.647 134.378L132.574 93.1543Z" fill="white"/>
<path opacity="0.1" d="M160.585 81.6813V213.136C160.585 221.472 154.021 229.16 145.884 230.18L120.799 233.311L76.4261 238.875C90.2089 223.091 94.8535 208.387 95.8108 196.304C97.9237 169.795 82.0992 158.867 88.1189 134.867C95.573 105.141 124.398 103.584 134.277 74.1972C136.446 67.745 137.852 59.4197 136.629 48.8942L155.708 69.3322C158.796 72.6531 160.585 77.0765 160.585 81.6813Z" fill="url(#paint3_linear_12_823)"/>
<path d="M93.5323 246.129C93.5323 247.935 92.4224 249.398 91.0519 249.398C89.6823 249.398 88.5723 247.934 88.5723 246.129C88.5723 244.323 89.6823 242.859 91.0519 242.859C92.4224 242.859 93.5323 244.323 93.5323 246.129Z" fill="url(#paint4_linear_12_823)"/>
<path d="M94.2235 246.16C94.2235 247.966 93.1136 249.43 91.7431 249.43C90.3735 249.43 89.2626 247.966 89.2626 246.16C89.2626 244.354 90.3726 242.89 91.7431 242.89C93.1136 242.89 94.2235 244.354 94.2235 246.16Z" fill="url(#paint5_linear_12_823)"/>
<path d="M92.7826 246.226C92.7826 246.983 92.3173 247.596 91.7431 247.596C91.1689 247.596 90.7035 246.983 90.7035 246.226C90.7035 245.469 91.1689 244.856 91.7431 244.856C92.3173 244.856 92.7826 245.469 92.7826 246.226Z" fill="url(#paint6_linear_12_823)"/>
<path d="M91.0528 242.168V245.759C91.0528 246.286 91.4789 246.713 92.0055 246.713C92.309 246.713 92.5952 246.568 92.7744 246.322L95.9963 241.901L91.0528 242.168Z" fill="#C9CED6"/>
<path d="M120.084 243.261C120.084 245.068 118.974 246.531 117.604 246.531C116.234 246.531 115.124 245.067 115.124 243.261C115.124 241.455 116.234 239.992 117.604 239.992C118.974 239.992 120.084 241.456 120.084 243.261Z" fill="url(#paint7_linear_12_823)"/>
<path d="M120.775 243.293C120.775 245.099 119.665 246.562 118.296 246.562C116.926 246.562 115.815 245.098 115.815 243.293C115.815 241.486 116.925 240.023 118.296 240.023C119.665 240.023 120.775 241.486 120.775 243.293Z" fill="url(#paint8_linear_12_823)"/>
<path d="M119.334 243.359C119.334 244.115 118.869 244.729 118.295 244.729C117.721 244.729 117.255 244.115 117.255 243.359C117.255 242.602 117.721 241.989 118.295 241.989C118.869 241.989 119.334 242.602 119.334 243.359Z" fill="url(#paint9_linear_12_823)"/>
<path d="M117.605 239.301V242.891C117.605 243.418 118.031 243.846 118.557 243.846C118.862 243.846 119.147 243.7 119.326 243.455L122.548 239.033L117.605 239.301Z" fill="#C9CED6"/>
<path d="M90.6825 242.726C90.3561 242.726 90.0745 242.48 90.037 242.147C89.9968 241.79 90.2537 241.467 90.6103 241.427L122.054 237.876C123.766 237.581 125.193 236.277 125.653 234.56L137.98 180.672C138.682 178.055 140.965 176.172 143.663 175.986L153.227 175.414C153.586 175.389 153.893 175.666 153.915 176.026C153.936 176.385 153.663 176.694 153.304 176.715L143.745 177.286C141.607 177.434 139.793 178.93 139.236 181.01L126.908 234.899C126.317 237.105 124.483 238.78 122.235 239.167L90.7547 242.724C90.731 242.725 90.7063 242.726 90.6825 242.726Z" fill="#D8DEE8"/>
<path d="M111.715 218.641C111.432 218.641 111.172 218.454 111.089 218.168L103.685 192.2C103.586 191.854 103.786 191.493 104.131 191.395C104.475 191.296 104.836 191.496 104.934 191.842L112.339 217.81C112.438 218.156 112.238 218.517 111.893 218.615C111.834 218.633 111.773 218.641 111.715 218.641Z" fill="#C2C2C2"/>
<path d="M119.29 217.555C118.981 217.555 118.706 217.334 118.65 217.017L114.083 191.294C114.02 190.939 114.256 190.601 114.609 190.538C114.966 190.474 115.301 190.711 115.364 191.066L119.931 216.789C119.994 217.144 119.758 217.482 119.404 217.545C119.365 217.553 119.327 217.555 119.29 217.555Z" fill="#C2C2C2"/>
<path d="M123.996 216.712C123.987 216.712 123.978 216.712 123.969 216.711C123.611 216.697 123.332 216.392 123.346 216.033L124.4 190.582C124.415 190.222 124.702 189.937 125.077 189.958C125.435 189.972 125.714 190.277 125.7 190.636L124.645 216.087C124.631 216.438 124.343 216.712 123.996 216.712Z" fill="#C2C2C2"/>
<path d="M101.382 219.591C101.111 219.591 100.858 219.419 100.765 219.146L92.0713 193.166C91.957 192.825 92.1408 192.455 92.4809 192.34C92.821 192.227 93.1904 192.41 93.3047 192.751L101.999 218.731C102.113 219.072 101.929 219.442 101.589 219.557C101.52 219.58 101.451 219.591 101.382 219.591Z" fill="#D8DEE8"/>
<path d="M175.602 178.978C175.567 178.978 175.53 178.977 175.494 178.973L154.096 177.21C153.38 177.151 152.847 176.522 152.906 175.804C152.965 175.087 153.594 174.552 154.309 174.612L175.707 176.375C176.423 176.434 176.956 177.063 176.897 177.781C176.841 178.462 176.272 178.978 175.602 178.978Z" fill="url(#paint10_linear_12_823)"/>
<path d="M115.984 250.31C115.984 252.116 114.874 253.58 113.504 253.58C112.134 253.58 111.024 252.116 111.024 250.31C111.024 248.505 112.133 247.041 113.504 247.041C114.874 247.041 115.984 248.504 115.984 250.31Z" fill="url(#paint11_linear_12_823)"/>
<path d="M116.675 250.341C116.675 252.147 115.565 253.61 114.195 253.61C112.826 253.61 111.715 252.146 111.715 250.341C111.715 248.534 112.826 247.071 114.195 247.071C115.565 247.071 116.675 248.535 116.675 250.341Z" fill="url(#paint12_linear_12_823)"/>
<path d="M115.234 250.406C115.234 251.163 114.768 251.776 114.194 251.776C113.62 251.776 113.155 251.163 113.155 250.406C113.155 249.65 113.62 249.036 114.194 249.036C114.768 249.036 115.234 249.65 115.234 250.406Z" fill="url(#paint13_linear_12_823)"/>
<path d="M113.504 246.35V249.94C113.504 250.467 113.93 250.895 114.457 250.895C114.761 250.895 115.046 250.749 115.226 250.504L118.448 246.082L113.504 246.35Z" fill="#BFC8D6"/>
<path d="M138.972 248.004C138.972 249.81 137.862 251.273 136.493 251.273C135.123 251.273 134.012 249.809 134.012 248.004C134.012 246.198 135.122 244.734 136.493 244.734C137.861 244.733 138.972 246.198 138.972 248.004Z" fill="url(#paint14_linear_12_823)"/>
<path d="M139.663 248.034C139.663 249.84 138.553 251.304 137.182 251.304C135.813 251.304 134.702 249.84 134.702 248.034C134.702 246.228 135.813 244.764 137.182 244.764C138.553 244.764 139.663 246.229 139.663 248.034Z" fill="url(#paint15_linear_12_823)"/>
<path d="M138.222 248.1C138.222 248.857 137.756 249.47 137.182 249.47C136.608 249.47 136.143 248.857 136.143 248.1C136.143 247.343 136.608 246.73 137.182 246.73C137.756 246.73 138.222 247.343 138.222 248.1Z" fill="url(#paint16_linear_12_823)"/>
<path d="M136.492 244.043V247.634C136.492 248.16 136.918 248.588 137.445 248.588C137.749 248.588 138.034 248.443 138.213 248.197L141.435 243.776L136.492 244.043Z" fill="#BFC8D6"/>
<path d="M80.0558 194.206C79.7175 194.206 79.4322 193.944 79.4076 193.601C79.382 193.242 79.6517 192.929 80.0101 192.904L136.012 188.863C136.064 188.861 136.116 188.863 136.168 188.871L159.352 192.829C159.706 192.889 159.944 193.225 159.884 193.581C159.824 193.936 159.492 194.175 159.133 194.114L136.027 190.169L80.1033 194.204C80.0869 194.206 80.0713 194.206 80.0558 194.206Z" fill="#D8DEE8"/>
<path d="M151.998 220.484C151.965 220.484 151.932 220.481 151.899 220.477L129.085 216.969L94.3771 220.317C94.0197 220.351 93.7015 220.089 93.6677 219.731C93.6329 219.372 93.8953 219.054 94.2528 219.02L129.041 215.664C129.094 215.658 129.149 215.66 129.202 215.668L152.096 219.189C152.451 219.243 152.695 219.577 152.64 219.932C152.591 220.253 152.314 220.484 151.998 220.484Z" fill="#C9CED6"/>
<path d="M128.838 186.058C128.612 186.109 128.395 185.913 128.364 185.69C127.797 181.71 126.178 177.378 123.838 174.392C121.744 171.72 120.129 170.562 117.075 170.03C117.072 170.029 117.004 170.027 117.002 170.027C110.589 169.344 110.236 184.335 110.289 186.407C110.376 189.759 110.109 187.154 109.853 187.436C109.597 187.718 109.402 188.696 109.351 186.917C109.22 182.182 109.691 169.582 116.93 169.044C116.933 169.044 116.975 169.043 116.979 169.044C120.416 169.509 122.261 170.799 124.593 173.753C127.039 176.852 128.71 181.302 129.255 185.443C129.286 185.68 129.136 185.985 128.883 186.047C128.869 186.051 128.852 186.055 128.838 186.058Z" fill="url(#paint17_linear_12_823)"/>
<path d="M99.2101 220.619C102.659 221.82 106.856 222.418 110.437 223.656C111.689 218.19 113.864 212.917 115.606 207.596C112.246 200.26 109.389 192.694 105.609 185.559C104.721 185.812 103.849 186.059 102.951 186.315C102.589 198.242 100.197 207.57 97.8917 218.96C97.6942 219.936 98.1979 220.266 99.2101 220.619Z" fill="url(#paint18_linear_12_823)"/>
<path opacity="0.3" d="M115.606 207.596C112.248 200.259 109.389 192.696 105.61 185.558C105.093 185.744 104.563 185.781 104.054 186.064C104.063 187.679 104.396 192 104.554 193.223C105.219 198.341 107.207 203.401 106.475 207.976C105.876 211.72 103.725 212.766 103.73 216.15C103.736 219.798 106.78 221.829 109.708 223.432C109.986 223.501 110.198 223.573 110.448 223.654C111.675 218.191 113.872 212.915 115.606 207.596Z" fill="url(#paint19_linear_12_823)"/>
<path d="M105.61 185.559C117.469 185.724 127.592 184.914 139.262 183.098C144.265 195.572 147.691 207.428 151.431 220.271C138.313 220.801 123.331 221.566 110.448 223.655C107.499 211.613 108.17 197.924 105.61 185.559Z" fill="url(#paint20_linear_12_823)"/>
<g opacity="0.3">
<path opacity="0.3" d="M139.262 183.099C133.416 183.993 128.193 184.652 122.155 185.097C121.218 185.167 121.456 186.603 121.499 187.636C121.755 193.677 133.027 193.452 134.775 200.627C136.08 205.985 130.607 212.228 126.555 214.599C122.322 217.075 118.494 216.107 115.099 218.949C113.617 220.189 113.108 221.578 112.501 223.341C124.879 221.564 138.885 220.774 151.431 220.272C147.708 207.419 144.239 195.579 139.262 183.099Z" fill="url(#paint21_linear_12_823)"/>
</g>
<path d="M116.497 188.203C116.012 187.274 116.536 189.603 115.939 187.546C114.81 183.654 113.046 176.863 115.345 172.351C116.012 171.045 117.549 169.847 118.993 169.468C126.437 167.519 131.553 179.856 133.203 184.721C133.759 186.359 133.288 185.631 132.915 185.357C132.541 185.081 133.378 188.068 132.162 184.601C131.319 182.197 125.651 167.88 119.269 170.504C118.105 170.983 116.878 172.031 116.231 172.86C113.781 176.002 116.263 185.389 116.641 186.709C117.63 190.168 116.468 186.741 116.607 188.197C116.625 188.404 116.578 188.358 116.497 188.203Z" fill="url(#paint22_linear_12_823)"/>
<path d="M117.782 188.215C117.837 188.94 117.349 189.57 116.613 189.619C115.877 189.667 115.317 189.097 115.262 188.377C115.207 187.657 115.682 187.026 116.417 186.984C117.153 186.943 117.727 187.489 117.782 188.215Z" fill="url(#paint23_linear_12_823)"/>
<path d="M134.347 185.695C134.383 186.424 133.916 187.135 133.199 187.316C132.482 187.497 131.93 186.961 131.89 186.243C131.851 185.524 132.337 184.812 133.061 184.677C133.784 184.541 134.311 184.965 134.347 185.695Z" fill="url(#paint24_linear_12_823)"/>
<path d="M143.595 201.763C140.021 198.401 136.063 195.191 132.176 192.184C131.844 191.926 131.674 191.959 131.341 192.164C129.663 193.201 127.665 194.301 126.009 195.297C125.453 195.632 125.314 196.059 125.751 196.588C128.945 200.459 132.341 204.491 135.458 208.443C135.795 208.871 136.132 208.895 136.577 208.564C138.85 206.875 141.412 204.963 143.555 203.122C144.057 202.692 144.087 202.227 143.595 201.763ZM130.933 195.974C130.514 196.337 129.971 196.037 129.675 195.646C129.379 195.256 129.22 194.638 129.627 194.263C130.035 193.888 130.578 194.184 130.875 194.573C131.169 194.964 131.352 195.61 130.933 195.974Z" fill="#D8DEE8"/>
<path d="M143.59 201.619C140.016 198.253 136.053 195.055 132.162 192.043C131.828 191.785 131.664 191.824 131.33 192.03C129.65 193.062 127.658 194.169 126 195.164C125.444 195.499 125.304 195.922 125.741 196.452C128.938 200.327 132.335 204.357 135.456 208.311C135.794 208.739 136.129 208.762 136.574 208.431C138.848 206.739 141.408 204.823 143.549 202.978C144.051 202.543 144.083 202.082 143.59 201.619ZM130.924 195.835C130.506 196.199 129.962 195.9 129.667 195.511C129.371 195.121 129.211 194.499 129.616 194.123C130.022 193.748 130.567 194.046 130.863 194.434C131.158 194.823 131.342 195.471 130.924 195.835Z" fill="#F4F7FA"/>
<path d="M128.605 193.703C128.571 193.71 128.53 193.683 128.51 193.65C128.096 192.951 127.581 192.194 126.935 191.724C125.155 190.434 123.138 190.345 121.076 190.268C119.014 190.19 117.325 190.054 115.837 188.591C115.455 188.216 115.066 187.655 115.231 187.132C115.298 186.923 115.599 186.913 115.791 186.898C115.828 186.895 115.89 186.942 115.895 187.004C115.9 187.066 115.825 187.093 115.799 187.11C115.697 187.176 115.409 187.034 115.405 187.261C115.396 187.735 115.529 188.012 116.032 188.498C117.353 189.773 119.114 190.015 121.095 190.058C123.157 190.102 125.269 190.243 127.065 191.549C127.718 192.025 128.272 192.821 128.69 193.538C128.717 193.584 128.689 193.665 128.654 193.685C128.618 193.705 128.64 193.696 128.605 193.703Z" fill="#26264F"/>
<path d="M129.614 195.255C129.551 195.319 129.543 195.312 129.532 195.23C129.521 195.146 129.392 195.341 129.563 195.024C129.733 194.707 130.294 194.016 130.07 193.261C129.933 192.797 129.953 192.293 129.122 191.769C127.342 190.65 124.555 189.899 122.341 189.242C120.984 188.84 119.464 188.327 118.158 187.774C117.861 187.648 117.688 187.577 117.412 187.477C117.352 187.455 117.33 187.399 117.349 187.343C117.367 187.287 117.416 187.255 117.477 187.276C117.761 187.373 117.936 187.45 118.24 187.578C119.535 188.122 121.061 188.638 122.406 189.034C124.624 189.686 127.466 190.462 129.246 191.584C130.127 192.14 130.128 192.716 130.276 193.224C130.513 194.042 129.906 194.825 129.722 195.155C129.538 195.486 129.677 195.191 129.614 195.255Z" fill="#26264F"/>
<path d="M143.591 201.619C140.013 198.241 136.058 195.073 132.163 192.033C131.829 191.773 131.66 191.896 131.335 192.009C131.189 192.061 131.014 192.228 130.865 192.3C131.039 192.78 131.323 193.345 131.599 193.737C133.025 195.77 135.8 195.855 136.621 197.956C137.344 199.807 135.575 201.17 135.499 203.385C135.461 204.486 136.164 206.92 137.198 207.95C139.306 206.408 141.603 204.674 143.549 202.977C144.051 202.54 144.084 202.085 143.591 201.619Z" fill="white"/>
<path d="M99.0848 199.997C99.0208 199.997 98.9568 199.987 98.8955 199.968L79.8674 194.178C79.5237 194.073 79.3298 193.708 79.4341 193.365C79.5392 193.02 79.904 192.827 80.245 192.93L99.1497 198.683L159.178 192.823C159.541 192.784 159.854 193.05 159.888 193.409C159.923 193.767 159.662 194.086 159.304 194.121L99.147 199.994C99.1269 199.996 99.1058 199.997 99.0848 199.997Z" fill="#D8DEE8"/>
<path d="M110.632 224.426C110.383 224.426 110.153 224.282 110.044 224.053L98.496 199.625C98.3424 199.299 98.4805 198.911 98.805 198.756C99.1296 198.603 99.5173 198.74 99.6718 199.066L111.024 223.082L151.935 219.184C152.298 219.149 152.61 219.413 152.645 219.771C152.678 220.129 152.416 220.447 152.059 220.482L110.694 224.424C110.673 224.425 110.653 224.426 110.632 224.426Z" fill="#D8DEE8"/>
<path d="M110.633 224.426C110.58 224.426 110.527 224.42 110.474 224.406L94.1559 220.3C93.9803 220.256 93.8304 220.14 93.7435 219.981L79.4853 193.868C79.3125 193.552 79.4286 193.156 79.744 192.983C80.0594 192.81 80.4544 192.927 80.6272 193.242L94.7493 219.105L110.791 223.141C111.14 223.229 111.351 223.583 111.263 223.932C111.19 224.228 110.924 224.426 110.633 224.426Z" fill="#D8DEE8"/>
<path d="M103.285 208.883C103.223 208.883 103.162 208.873 103.102 208.856L85.1813 203.592C84.8366 203.491 84.6391 203.128 84.7406 202.782C84.8411 202.437 85.2041 202.239 85.5479 202.341L103.352 207.57L156.27 202.945C156.634 202.909 156.943 203.179 156.974 203.537C157.005 203.896 156.741 204.212 156.382 204.243L103.342 208.88C103.323 208.882 103.303 208.883 103.285 208.883Z" fill="#D8DEE8"/>
<path d="M107.664 218.145C107.604 218.145 107.546 218.136 107.488 218.121L90.3195 213.3C89.973 213.202 89.7719 212.843 89.8688 212.496C89.9657 212.149 90.3241 211.946 90.6706 212.044L107.726 216.833L153.678 212.804C154.034 212.766 154.351 213.038 154.382 213.397C154.413 213.755 154.149 214.071 153.79 214.102L107.72 218.142C107.701 218.143 107.682 218.145 107.664 218.145Z" fill="#D8DEE8"/>
<path d="M119.079 223.622C118.8 223.622 118.541 223.438 118.457 223.156L111.092 198.391C110.99 198.046 111.185 197.683 111.53 197.58C111.873 197.477 112.236 197.674 112.339 198.019L119.704 222.784C119.806 223.13 119.611 223.492 119.266 223.595C119.204 223.613 119.141 223.622 119.079 223.622Z" fill="#D8DEE8"/>
<path d="M127.226 222.845C126.916 222.845 126.641 222.622 126.586 222.306L122.169 197.215C122.107 196.861 122.342 196.523 122.696 196.46C123.049 196.399 123.387 196.634 123.45 196.989L127.867 222.079C127.929 222.434 127.693 222.772 127.339 222.834C127.301 222.842 127.263 222.845 127.226 222.845Z" fill="#D8DEE8"/>
<path d="M136.414 221.796C136.071 221.796 135.785 221.528 135.765 221.181L134.373 196.269C134.352 195.91 134.627 195.602 134.985 195.581C135.346 195.568 135.651 195.836 135.671 196.195L137.063 221.108C137.083 221.467 136.809 221.775 136.451 221.795C136.439 221.796 136.426 221.796 136.414 221.796Z" fill="#D8DEE8"/>
<path d="M145.12 220.82C145.109 220.82 145.097 220.82 145.085 220.819C144.727 220.8 144.451 220.494 144.47 220.135L145.795 194.825C145.813 194.465 146.117 194.19 146.478 194.208C146.836 194.226 147.112 194.533 147.093 194.892L145.768 220.203C145.751 220.55 145.464 220.82 145.12 220.82Z" fill="#D8DEE8"/>
<path d="M105.698 223.184C105.456 223.184 105.223 223.048 105.111 222.814L93.2078 198.017C93.0514 197.693 93.1877 197.303 93.5113 197.148C93.835 196.992 94.2235 197.128 94.3799 197.452L106.283 222.249C106.439 222.573 106.303 222.963 105.979 223.12C105.889 223.164 105.793 223.184 105.698 223.184Z" fill="#D8DEE8"/>
<path d="M99.0848 221.52C98.8462 221.52 98.6158 221.388 98.5024 221.158L85.867 195.79C85.7061 195.469 85.8368 195.077 86.1577 194.916C86.4795 194.755 86.8699 194.886 87.0299 195.209L99.6654 220.577C99.8263 220.898 99.6955 221.29 99.3737 221.451C99.2814 221.498 99.1826 221.52 99.0848 221.52Z" fill="#D8DEE8"/>
<path d="M113.38 247.353C113.297 247.353 113.216 247.338 113.14 247.307L90.4439 242.681C90.1102 242.548 89.9465 242.169 90.0791 241.834C90.2117 241.499 90.5902 241.335 90.9239 241.468L113.467 246.034L141.863 242.557C143.885 242.309 145.54 240.878 146.081 238.911L161.648 182.269C162.358 179.684 164.628 177.818 167.296 177.623L175.556 177.023C175.91 177.002 176.226 177.267 176.251 177.626C176.277 177.985 176.008 178.298 175.65 178.323L167.39 178.924C165.27 179.078 163.466 180.561 162.902 182.616L147.335 239.257C146.654 241.736 144.568 243.539 142.021 243.852L113.46 247.349C113.432 247.352 113.406 247.353 113.38 247.353Z" fill="#D8DEE8"/>
<path d="M69.5395 82.6665C85.3834 66.7862 85.3834 41.0393 69.5395 25.1591C53.6955 9.27889 28.0073 9.27889 12.1634 25.1591C-3.68062 41.0393 -3.68062 66.7862 12.1634 82.6665C28.0073 98.5467 53.6955 98.5467 69.5395 82.6665Z" fill="#D8DEE8"/>
<path d="M72.83 82.6666C88.674 66.7864 88.674 41.0394 72.83 25.1592C56.986 9.27901 31.2979 9.27901 15.4539 25.1592C-0.390097 41.0394 -0.390096 66.7864 15.4539 82.6666C31.2979 98.5468 56.986 98.5468 72.83 82.6666Z" fill="white"/>
<path d="M44.1426 90.035C64.0466 90.035 80.1819 73.8627 80.1819 53.9133C80.1819 33.9638 64.0466 17.7915 44.1426 17.7915C24.2387 17.7915 8.10332 33.9638 8.10332 53.9133C8.10332 73.8627 24.2387 90.035 44.1426 90.035Z" fill="url(#paint25_linear_12_823)"/>
<g opacity="0.15">
<path opacity="0.15" d="M43.2987 43.9724C43.1726 52.3307 37.9566 56.6752 32.149 56.6523C25.8222 56.6275 20.7497 51.7662 20.8704 43.7827C20.9847 36.1914 25.7563 30.7839 32.8448 31.3145C39.7239 31.8295 43.4021 37.15 43.2987 43.9724ZM28.2789 43.812C28.213 48.1721 29.6366 51.3419 32.4178 51.3932C35.0949 51.4427 36.4288 48.71 36.4983 44.1355C36.5605 39.9999 35.5026 36.7367 32.5797 36.5616C29.7344 36.3903 28.341 39.6443 28.2789 43.812ZM34.1495 70.6848L54.3013 34.1158C54.6871 33.4166 55.4432 33.0061 56.2386 33.0657C57.717 33.1765 58.5865 34.7802 57.8761 36.0842L37.9474 72.6431C37.6055 73.2708 36.9609 73.6731 36.2478 73.7051L36.0247 73.7152C34.4338 73.7849 33.3797 72.0822 34.1495 70.6848ZM68.6299 60.3792C68.5129 68.1207 64.0357 72.3562 59.0674 72.5753C53.7243 72.8108 49.4135 68.5404 49.4674 61.1829C49.5735 54.1854 53.6402 48.985 59.6891 49.1481C65.5762 49.3066 68.725 54.0608 68.6299 60.3792ZM55.8309 60.8869C55.7157 64.9134 56.9271 67.7771 59.3015 67.7075C61.5899 67.6406 62.7346 65.0582 62.7986 60.8273C62.8562 57.0023 62.0069 54.0351 59.5081 54.0049C57.0267 53.9746 55.8894 57.0399 55.8309 60.8869Z" fill="url(#paint26_linear_12_823)"/>
</g>
<path d="M44.2724 43.5829C44.1463 51.9412 38.9303 56.2857 33.1227 56.2628C26.7959 56.2381 21.7234 51.3767 21.8441 43.3932C21.9584 35.802 26.73 30.3944 33.8185 30.925C40.6976 31.44 44.3748 36.7614 44.2724 43.5829ZM29.2516 43.4225C29.1858 47.7827 30.6094 50.9524 33.3906 51.0037C36.0676 51.0532 37.4016 48.3206 37.4711 43.746C37.5332 39.6104 36.4754 36.3472 33.5524 36.1722C30.7081 36.0008 29.3147 39.2549 29.2516 43.4225ZM35.1232 70.2953L55.275 33.7264C55.6608 33.0272 56.4169 32.6166 57.2123 32.6762C58.6907 32.7871 59.5602 34.3907 58.8498 35.6947L38.9202 72.2536C38.5783 72.8813 37.9337 73.2836 37.2206 73.3157L36.9975 73.3258C35.4075 73.3963 34.3534 71.6928 35.1232 70.2953ZM69.6027 59.9897C69.4857 67.7313 65.0084 71.9668 60.0402 72.1858C54.6971 72.4213 50.3863 68.151 50.4402 60.7934C50.5463 53.7959 54.613 48.5955 60.6619 48.7586C66.549 48.9171 69.6987 53.6713 69.6027 59.9897ZM56.8046 60.4983C56.6894 64.5249 57.9008 67.3886 60.2752 67.3189C62.5636 67.252 63.7083 64.6697 63.7723 60.4387C63.8299 56.6138 62.9806 53.6466 60.4818 53.6163C57.9995 53.5861 56.8622 56.6504 56.8046 60.4983Z" fill="white"/>
<path d="M172.742 141.842C172.191 141.42 171.639 140.997 171.088 140.574C170.605 140.712 162.677 143.1 161.107 150.09C160.891 151.051 160.096 154.595 162.032 156.873C165.279 160.691 174.699 159.188 179.121 153.848C182.596 149.652 183.028 143.035 181.02 141.795C178.591 140.295 171.348 145.906 170.797 146.333C169.69 147.19 168.685 148.103 168.508 147.943C168.208 147.67 170.586 144.553 172.742 141.842Z" fill="url(#paint27_linear_12_823)"/>
<path d="M233.791 191.319C233.791 191.319 233.369 190.22 234.031 189.645C234.692 189.071 238.352 187.407 240.187 187.441C242.023 187.476 240.544 188.895 239.495 189.697C238.447 190.5 236.002 192.182 235.372 192.325C234.743 192.467 233.791 191.319 233.791 191.319Z" fill="url(#paint28_linear_12_823)"/>
<path d="M230.552 193.263C231.618 192.431 232.548 191.781 233.251 191.313C234.806 190.277 235.499 189.957 236.193 189.74C236.798 189.55 238.17 189.198 238.299 189.483C238.429 189.773 237.158 190.453 234.036 192.829C233.583 193.173 232.144 194.275 232.144 194.275L230.552 193.263Z" fill="url(#paint29_linear_12_823)"/>
<path d="M184.084 242.458C184.084 242.458 184.508 243.557 183.847 244.132C183.186 244.707 179.53 246.376 177.693 246.344C175.857 246.312 177.335 244.892 178.382 244.087C179.429 243.283 181.872 241.597 182.501 241.454C183.131 241.312 184.084 242.458 184.084 242.458Z" fill="url(#paint30_linear_12_823)"/>
<path d="M183.82 237.595C183.898 238.996 183.752 240.132 183.599 240.923C183.379 242.052 183.247 242.691 182.713 243.258C181.769 244.259 180.116 244.456 179.877 244.053C179.606 243.596 181.354 242.704 181.935 240.563C182.189 239.624 182.129 238.776 182.03 238.179L183.82 237.595Z" fill="url(#paint31_linear_12_823)"/>
<path d="M177.533 180.502C175.058 183.112 175.6 186.844 176.374 193.531C177.024 199.142 177.91 207.438 178.743 217.941C179.499 225.267 180.255 232.594 181.011 239.919C182.271 239.919 183.532 239.919 184.792 239.919C186.337 236.63 188.178 231.592 188.27 225.368C188.346 220.213 187.144 219.536 186.912 213.696C186.784 210.485 187.068 208.686 189.479 194.749C191.397 183.663 191.775 181.583 190.235 179.895C187.52 176.918 180.679 177.182 177.533 180.502Z" fill="url(#paint32_linear_12_823)"/>
<path opacity="0.4" d="M185.094 231.549C184.443 229.505 182.715 227.416 182.599 223.364C182.461 218.583 184.749 217.389 184.414 212.906C184.092 208.597 181.874 208.283 181.238 204.039C180.499 199.108 183.236 197.818 184.187 191.988C185.055 186.67 183.799 181.486 182.491 178.021C185.427 177.484 188.59 178.091 190.236 179.896C191.776 181.584 191.398 183.664 189.48 194.75C187.068 208.687 186.785 210.486 186.913 213.697C187.145 219.536 188.347 220.213 188.271 225.369C188.178 231.593 186.338 236.631 184.793 239.92C184.376 239.92 183.959 239.92 183.541 239.92C185.562 236.237 185.732 233.552 185.094 231.549Z" fill="url(#paint33_linear_12_823)"/>
<path d="M234.444 193.889C229.144 201.208 219.009 213.301 210.245 211.251C205.612 210.167 203.931 205.729 190.312 186.986C187.037 182.478 184.249 178.763 182.269 176.155C187.562 174.842 192.856 173.528 198.149 172.215C201.722 178.123 204.07 183.125 205.526 186.503C209.004 194.577 210.257 200.073 213.424 200.408C214.971 200.571 215.974 199.395 218.112 197.68C220.911 195.434 225.245 192.591 231.723 190.404C232.629 191.565 233.536 192.727 234.444 193.889Z" fill="url(#paint34_linear_12_823)"/>
<path d="M253.216 123.285C250.374 113.583 235.996 108.993 228.674 112.781C223.398 115.51 224.087 121.397 218.4 123.087C213.335 124.592 211.403 120.332 205.334 121.97C200.586 123.251 199.852 126.376 194.805 126.612C192.765 126.707 191.631 126.257 188.81 126.753C186.635 127.137 184.681 127.509 183.129 129.154C182.86 129.439 180.68 131.808 181.278 134.721C181.957 138.03 185.504 139.356 186.505 139.73C189.831 140.974 192.593 140.006 194.405 139.827C204.25 138.856 207.6 155.282 221.739 160.225C229.58 162.966 239.374 161.697 242.422 157.002C242.75 156.496 244.784 153.364 243.944 150.101C243.293 147.57 241.426 146.957 241.645 145.314C241.951 143.006 245.382 142.295 248.102 140.192C252.763 136.586 254.857 128.888 253.216 123.285Z" fill="url(#paint35_linear_12_823)"/>
<path d="M197.939 140.16C193.881 140.144 188.856 140.189 183.72 140.733C172.679 141.901 173.114 147.407 175.113 152.426C177.153 157.549 177.083 162.072 177.041 163.681C176.976 166.274 176.506 168.352 175.565 172.509C173.932 179.73 172.715 181.389 173.865 183.235C175.542 185.927 180.241 185.794 181.066 185.755C185.24 185.553 186.126 183.099 189.645 182.71C193.733 182.258 194.679 185.336 200.364 187.407C207.075 189.852 215.714 189.205 219.727 184.702C221.276 182.964 222.27 180.561 221.605 179.805C220.698 178.776 217.542 181.738 214.183 180.563C211.958 179.784 212.159 178.07 209.495 176.398C206.288 174.386 204.402 175.866 202.227 174.567C198.836 172.54 199.565 166.629 199.291 156.898C199.177 152.868 198.862 147.134 197.939 140.16Z" fill="url(#paint36_linear_12_823)"/>
<path d="M197.939 140.16C203.828 140.448 205.933 146.591 212.08 147.803C215.805 148.538 221.361 147.53 229.339 139.763C230.469 140.287 231.6 140.811 232.731 141.336C231.569 148.31 228.341 152.223 226.756 153.871C217.701 163.286 200.528 162.997 191.228 154.925C188.31 152.393 186.665 149.525 185.771 147.64C188.711 143.977 192.989 139.918 197.939 140.16Z" fill="url(#paint37_linear_12_823)"/>
<path d="M185.048 135.616C185.415 135.352 185.932 135.524 186.072 135.956C186.458 137.151 187.254 139.186 188.34 139.693C189.904 140.425 192.259 140.104 192.556 140.394C192.852 140.682 185.534 144.489 180.658 142.759C180.624 142.747 180.591 142.731 180.559 142.715L180.281 142.564C179.73 142.267 179.855 141.443 180.468 141.322C181.409 141.136 183.873 140.426 184.493 139.35C184.564 139.226 184.584 138.255 184.566 138.113L184.366 136.538C184.335 136.295 184.44 136.054 184.638 135.912L185.048 135.616Z" fill="url(#paint38_linear_12_823)"/>
<path d="M186.576 136.229C187.428 135.198 186.907 133.879 186.651 133.582C186.288 133.16 185.631 132.889 185.221 132.911C183.993 132.978 182.049 136.316 183.281 137.256C184.656 138.306 186.067 137.253 186.067 137.253C186.203 137.272 186.505 137.293 186.812 137.13C186.901 137.083 187.291 136.875 187.261 136.624C187.238 136.425 186.958 136.236 186.576 136.229Z" fill="url(#paint39_linear_12_823)"/>
<path d="M230.291 140.205L230.846 139.108C230.846 139.108 228.01 134.457 230.334 133.711C232.659 132.964 232.004 134.294 231.74 134.929C231.477 135.563 231.901 137.633 232.305 138.264C232.709 138.896 232.006 141.001 232.006 141.001L230.291 140.205Z" fill="url(#paint40_linear_12_823)"/>
<path opacity="0.5" d="M210.199 184.333C208.732 183.332 209.742 181.37 208.081 179.786C206.562 178.335 204.9 179.198 202.183 178.421C198.918 177.488 196.389 174.831 195.227 172.51C194.398 170.855 194.465 169.772 195.227 161.293C195.952 153.219 196.157 151.247 197.192 150.986C199.076 150.51 200.763 156.442 204.452 156.443C206.535 156.444 206.818 154.552 209.442 153.563C213.897 151.885 217.081 155.831 221.843 155.685C223.06 155.648 224.537 155.33 226.222 154.38C219.359 161.018 208.304 162.467 199.343 159.461C199.464 167.667 199.145 172.725 202.227 174.567C204.401 175.866 206.288 174.385 209.495 176.398C212.159 178.07 211.959 179.784 214.183 180.563C217.542 181.738 220.698 178.776 221.605 179.805C222.209 180.491 221.442 182.526 220.139 184.196C219.374 183.878 218.529 183.648 217.609 183.576C214.094 183.3 211.93 185.513 210.199 184.333Z" fill="url(#paint41_linear_12_823)"/>
<path d="M160.296 128.221L160.098 127.081L158.628 126.721C158.299 126.641 157.958 126.783 157.783 127.072C156.855 128.604 154.287 133.611 156.165 139.525C156.264 139.835 156.546 140.051 156.871 140.065C157.461 140.088 158.102 140.027 158.102 140.027L160.296 128.221Z" fill="url(#paint42_linear_12_823)"/>
<path d="M171.594 136.678L172.859 140.039C172.859 140.039 173.354 140.933 173.415 141.358C174.032 141.606 175.025 141.305 175.025 141.305L174.698 136.849L171.689 136.608L171.594 136.678Z" fill="url(#paint43_linear_12_823)"/>
<path d="M171.453 141.085L171.888 139.71C171.888 139.71 172.411 138.575 173.888 138.382C175.365 138.189 175.349 138.988 175.349 138.988L174.385 139.274C174.385 139.274 173.762 139.454 173.335 140.36C172.737 141.282 172.132 141.704 172.132 141.704L171.453 141.085Z" fill="url(#paint44_linear_12_823)"/>
<path d="M176.971 134.278C176.971 134.278 164.87 131.518 160.098 127.082C155.537 131.879 158.102 140.027 158.102 140.027C158.102 140.027 171.26 137.008 176.549 137.652C177.669 136.591 176.971 134.278 176.971 134.278Z" fill="url(#paint45_linear_12_823)"/>
<path d="M153.57 142.275C153.812 141.981 153.892 141.567 153.742 141.186C149.618 130.704 155.352 125.194 155.408 125.14C155.846 124.734 155.871 124.046 155.464 123.607C155.057 123.168 154.373 123.144 153.935 123.551C153.65 123.815 147.068 130.137 151.728 141.982C151.948 142.539 152.576 142.813 153.133 142.593C153.308 142.524 153.456 142.412 153.57 142.275Z" fill="white"/>
<path d="M149.728 121.071C149.255 120.561 148.46 120.532 147.952 121.006C147.621 121.312 139.978 128.654 145.389 142.41C145.643 143.057 146.373 143.375 147.019 143.12C147.225 143.039 147.397 142.909 147.527 142.75C147.808 142.408 147.901 141.927 147.728 141.486C142.939 129.313 149.597 122.913 149.663 122.851C150.172 122.378 150.201 121.58 149.728 121.071Z" fill="white"/>
<defs>
<linearGradient id="paint0_linear_12_823" x1="64.8317" y1="122.514" x2="220.835" y2="122.514" gradientUnits="userSpaceOnUse">
<stop stop-color="#AA80F9"/>
<stop offset="0.9964" stop-color="#6165D7"/>
</linearGradient>
<linearGradient id="paint1_linear_12_823" x1="80.894" y1="440.505" x2="129.574" y2="-841.142" gradientUnits="userSpaceOnUse">
<stop offset="0.003597" stop-color="#F36F56"/>
<stop offset="1" stop-color="#FFC444"/>
</linearGradient>
<linearGradient id="paint2_linear_12_823" x1="62.3799" y1="1065.25" x2="110.856" y2="-211.057" gradientUnits="userSpaceOnUse">
<stop offset="0.003597" stop-color="#F36F56"/>
<stop offset="1" stop-color="#FFC444"/>
</linearGradient>
<linearGradient id="paint3_linear_12_823" x1="76.4266" y1="143.885" x2="160.585" y2="143.885" gradientUnits="userSpaceOnUse">
<stop offset="0.003597" stop-color="#F36F56"/>
<stop offset="1" stop-color="#FFC444"/>
</linearGradient>
<linearGradient id="paint4_linear_12_823" x1="88.3736" y1="243.871" x2="89.7483" y2="245.024" gradientUnits="userSpaceOnUse">
<stop stop-color="#AA80F9"/>
<stop offset="0.9964" stop-color="#6165D7"/>
</linearGradient>
<linearGradient id="paint5_linear_12_823" x1="89.2634" y1="246.16" x2="94.2235" y2="246.16" gradientUnits="userSpaceOnUse">
<stop stop-color="#AA80F9"/>
<stop offset="0.9964" stop-color="#6165D7"/>
</linearGradient>
<linearGradient id="paint6_linear_12_823" x1="90.704" y1="246.226" x2="92.7824" y2="246.226" gradientUnits="userSpaceOnUse">
<stop stop-color="#40447E"/>
<stop offset="0.9964" stop-color="#3C3B6B"/>
</linearGradient>
<linearGradient id="paint7_linear_12_823" x1="114.925" y1="241.004" x2="116.3" y2="242.157" gradientUnits="userSpaceOnUse">
<stop stop-color="#AA80F9"/>
<stop offset="0.9964" stop-color="#6165D7"/>
</linearGradient>
<linearGradient id="paint8_linear_12_823" x1="115.815" y1="243.293" x2="120.775" y2="243.293" gradientUnits="userSpaceOnUse">
<stop stop-color="#AA80F9"/>
<stop offset="0.9964" stop-color="#6165D7"/>
</linearGradient>
<linearGradient id="paint9_linear_12_823" x1="117.256" y1="243.358" x2="119.334" y2="243.358" gradientUnits="userSpaceOnUse">
<stop stop-color="#40447E"/>
<stop offset="0.9964" stop-color="#3C3B6B"/>
</linearGradient>
<linearGradient id="paint10_linear_12_823" x1="152.901" y1="176.792" x2="176.901" y2="176.792" gradientUnits="userSpaceOnUse">
<stop stop-color="#40447E"/>
<stop offset="0.9964" stop-color="#3C3B6B"/>
</linearGradient>
<linearGradient id="paint11_linear_12_823" x1="110.825" y1="248.052" x2="112.2" y2="249.205" gradientUnits="userSpaceOnUse">
<stop stop-color="#AA80F9"/>
<stop offset="0.9964" stop-color="#6165D7"/>
</linearGradient>
<linearGradient id="paint12_linear_12_823" x1="111.715" y1="250.341" x2="116.675" y2="250.341" gradientUnits="userSpaceOnUse">
<stop stop-color="#AA80F9"/>
<stop offset="0.9964" stop-color="#6165D7"/>
</linearGradient>
<linearGradient id="paint13_linear_12_823" x1="113.155" y1="250.407" x2="115.234" y2="250.407" gradientUnits="userSpaceOnUse">
<stop stop-color="#40447E"/>
<stop offset="0.9964" stop-color="#3C3B6B"/>
</linearGradient>
<linearGradient id="paint14_linear_12_823" x1="133.813" y1="245.745" x2="135.188" y2="246.899" gradientUnits="userSpaceOnUse">
<stop stop-color="#AA80F9"/>
<stop offset="0.9964" stop-color="#6165D7"/>
</linearGradient>
<linearGradient id="paint15_linear_12_823" x1="134.703" y1="248.034" x2="139.663" y2="248.034" gradientUnits="userSpaceOnUse">
<stop stop-color="#AA80F9"/>
<stop offset="0.9964" stop-color="#6165D7"/>
</linearGradient>
<linearGradient id="paint16_linear_12_823" x1="136.144" y1="248.1" x2="138.222" y2="248.1" gradientUnits="userSpaceOnUse">
<stop stop-color="#40447E"/>
<stop offset="0.9964" stop-color="#3C3B6B"/>
</linearGradient>
<linearGradient id="paint17_linear_12_823" x1="101.311" y1="179.125" x2="117.685" y2="178.415" gradientUnits="userSpaceOnUse">
<stop stop-color="#311944"/>
<stop offset="1" stop-color="#893976"/>
</linearGradient>
<linearGradient id="paint18_linear_12_823" x1="97.8493" y1="204.607" x2="115.606" y2="204.607" gradientUnits="userSpaceOnUse">
<stop stop-color="#AA80F9"/>
<stop offset="0.9964" stop-color="#6165D7"/>
</linearGradient>
<linearGradient id="paint19_linear_12_823" x1="103.73" y1="204.606" x2="115.606" y2="204.606" gradientUnits="userSpaceOnUse">
<stop stop-color="#AA80F9"/>
<stop offset="0.9964" stop-color="#6165D7"/>
</linearGradient>
<linearGradient id="paint20_linear_12_823" x1="123.848" y1="201.676" x2="149.527" y2="244.844" gradientUnits="userSpaceOnUse">
<stop stop-color="#AA80F9"/>
<stop offset="0.9964" stop-color="#6165D7"/>
</linearGradient>
<linearGradient id="paint21_linear_12_823" x1="123.488" y1="197.586" x2="144.422" y2="246.637" gradientUnits="userSpaceOnUse">
<stop stop-color="#AA80F9"/>
<stop offset="0.9964" stop-color="#6165D7"/>
</linearGradient>
<linearGradient id="paint22_linear_12_823" x1="125.843" y1="164.114" x2="118.603" y2="225.768" gradientUnits="userSpaceOnUse">
<stop stop-color="#311944"/>
<stop offset="1" stop-color="#893976"/>
</linearGradient>
<linearGradient id="paint23_linear_12_823" x1="129.68" y1="163.203" x2="110.025" y2="200.51" gradientUnits="userSpaceOnUse">
<stop stop-color="#311944"/>
<stop offset="1" stop-color="#893976"/>
</linearGradient>
<linearGradient id="paint24_linear_12_823" x1="143.269" y1="166.623" x2="122.101" y2="206.802" gradientUnits="userSpaceOnUse">
<stop stop-color="#311944"/>
<stop offset="1" stop-color="#893976"/>
</linearGradient>
<linearGradient id="paint25_linear_12_823" x1="52.0698" y1="10.2122" x2="1.89261" y2="285.558" gradientUnits="userSpaceOnUse">
<stop offset="0.00359712" stop-color="#E38DDD"/>
<stop offset="1" stop-color="#9571F6"/>
</linearGradient>
<linearGradient id="paint26_linear_12_823" x1="20.743" y1="52.2978" x2="68.7407" y2="53.021" gradientUnits="userSpaceOnUse">
<stop stop-color="#FF9085"/>
<stop offset="1" stop-color="#FB6FBB"/>
</linearGradient>
<linearGradient id="paint27_linear_12_823" x1="173.85" y1="140.806" x2="164.791" y2="172.534" gradientUnits="userSpaceOnUse">
<stop stop-color="#FF9085"/>
<stop offset="1" stop-color="#FB6FBB"/>
</linearGradient>
<linearGradient id="paint28_linear_12_823" x1="230.098" y1="199.294" x2="246.261" y2="176.728" gradientUnits="userSpaceOnUse">
<stop stop-color="#AB316D"/>
<stop offset="1" stop-color="#792D3D"/>
</linearGradient>
<linearGradient id="paint29_linear_12_823" x1="237.583" y1="186.666" x2="216.822" y2="217.815" gradientUnits="userSpaceOnUse">
<stop stop-color="#FFC444"/>
<stop offset="0.9964" stop-color="#F36F56"/>
</linearGradient>
<linearGradient id="paint30_linear_12_823" x1="187.766" y1="234.479" x2="171.635" y2="257.068" gradientUnits="userSpaceOnUse">
<stop stop-color="#AB316D"/>
<stop offset="1" stop-color="#792D3D"/>
</linearGradient>
<linearGradient id="paint31_linear_12_823" x1="183.117" y1="245.05" x2="175.12" y2="218.594" gradientUnits="userSpaceOnUse">
<stop stop-color="#FFC444"/>
<stop offset="0.9964" stop-color="#F36F56"/>
</linearGradient>
<linearGradient id="paint32_linear_12_823" x1="172.994" y1="238.607" x2="185.523" y2="194.74" gradientUnits="userSpaceOnUse">
<stop stop-color="#444B8C"/>
<stop offset="0.9964" stop-color="#26264F"/>
</linearGradient>
<linearGradient id="paint33_linear_12_823" x1="175.294" y1="239.264" x2="187.823" y2="195.397" gradientUnits="userSpaceOnUse">
<stop stop-color="#444B8C"/>
<stop offset="0.9964" stop-color="#26264F"/>
</linearGradient>
<linearGradient id="paint34_linear_12_823" x1="196.346" y1="207.033" x2="213.467" y2="175.798" gradientUnits="userSpaceOnUse">
<stop stop-color="#444B8C"/>
<stop offset="0.9964" stop-color="#26264F"/>
</linearGradient>
<linearGradient id="paint35_linear_12_823" x1="258.127" y1="118.841" x2="193.561" y2="153.662" gradientUnits="userSpaceOnUse">
<stop stop-color="#444B8C"/>
<stop offset="0.9964" stop-color="#26264F"/>
</linearGradient>
<linearGradient id="paint36_linear_12_823" x1="203.425" y1="144.388" x2="181.861" y2="219.908" gradientUnits="userSpaceOnUse">
<stop stop-color="#FF9085"/>
<stop offset="1" stop-color="#FB6FBB"/>
</linearGradient>
<linearGradient id="paint37_linear_12_823" x1="208.927" y1="145.959" x2="187.363" y2="221.478" gradientUnits="userSpaceOnUse">
<stop stop-color="#FF9085"/>
<stop offset="1" stop-color="#FB6FBB"/>
</linearGradient>
<linearGradient id="paint38_linear_12_823" x1="190.691" y1="152.142" x2="182.286" y2="131.656" gradientUnits="userSpaceOnUse">
<stop stop-color="#FFC444"/>
<stop offset="0.9964" stop-color="#F36F56"/>
</linearGradient>
<linearGradient id="paint39_linear_12_823" x1="189.481" y1="132.018" x2="167.5" y2="150.269" gradientUnits="userSpaceOnUse">
<stop stop-color="#FFC444"/>
<stop offset="0.9964" stop-color="#F36F56"/>
</linearGradient>
<linearGradient id="paint40_linear_12_823" x1="230.508" y1="129.36" x2="232.073" y2="157.955" gradientUnits="userSpaceOnUse">
<stop stop-color="#FFC444"/>
<stop offset="0.9964" stop-color="#F36F56"/>
</linearGradient>
<linearGradient id="paint41_linear_12_823" x1="226.222" y1="167.82" x2="194.63" y2="167.82" gradientUnits="userSpaceOnUse">
<stop stop-color="#FF9085"/>
<stop offset="1" stop-color="#FB6FBB"/>
</linearGradient>
<linearGradient id="paint42_linear_12_823" x1="153.394" y1="132.217" x2="164.495" y2="135.182" gradientUnits="userSpaceOnUse">
<stop stop-color="#AB316D"/>
<stop offset="1" stop-color="#792D3D"/>
</linearGradient>
<linearGradient id="paint43_linear_12_823" x1="168.816" y1="137.702" x2="180.536" y2="140.831" gradientUnits="userSpaceOnUse">
<stop stop-color="#AB316D"/>
<stop offset="1" stop-color="#792D3D"/>
</linearGradient>
<linearGradient id="paint44_linear_12_823" x1="174.294" y1="138.322" x2="172.218" y2="141.422" gradientUnits="userSpaceOnUse">
<stop stop-color="#FFC444"/>
<stop offset="0.9964" stop-color="#F36F56"/>
</linearGradient>
<linearGradient id="paint45_linear_12_823" x1="160.93" y1="127.441" x2="180.709" y2="156.384" gradientUnits="userSpaceOnUse">
<stop stop-color="#444B8C"/>
<stop offset="0.9964" stop-color="#26264F"/>
</linearGradient>
</defs>
</svg>
