<svg width="256" height="256" viewBox="0 0 256 256" fill="none" xmlns="http://www.w3.org/2000/svg">
<path d="M194.46 15.3235C203.058 27.6322 192.977 47.5885 205.735 56.8459C218.154 65.8575 233.41 51.0868 245.114 58.8437C262.476 70.3511 259.306 123.005 233.922 155.72C226.287 165.558 219.909 169.386 217.084 180.513C211.018 204.405 232.338 218.618 228.28 230.434C219.146 257.041 78.6534 279.367 22.2813 199.405C-4.04834 162.06 -7.987 108.132 15.5362 67.1733C58.0417 -6.83812 175.168 -12.2959 194.46 15.3235Z" fill="#F4F7FA"/>
<path d="M187.973 135.177C184.472 136.544 178.578 138.845 171.669 137.204C159.108 134.219 151.345 120.139 149.463 108.775C147.845 99.013 151.322 89.1054 158.277 69.2884C164.826 50.6251 168.554 46.1343 165.649 40.1766C161.509 31.6831 149.74 32.2176 146.4 21.588C145.999 20.3123 144.623 15.9317 146.702 12.2358C150.26 5.9103 161.447 6.03322 167.859 7.57294C174.044 9.05803 183.045 13.6053 185.151 21.3576C186.676 26.9738 183.287 29.5015 185.646 33.9139C188.021 38.3528 192.169 37.1327 198.698 42.371C201.306 44.4634 206.542 48.6647 207.777 54.8573C209.373 62.8654 202.835 66.9547 205.502 72.5581C207.429 76.6064 211.473 75.7951 214.557 79.8097C218.618 85.0954 216.558 92.9415 214.756 99.4482C212.635 107.11 206.91 127.781 187.973 135.177Z" fill="url(#paint0_linear_7_291)"/>
<path opacity="0.16" d="M150.482 12.8586C149.32 17.1427 164.698 19.0057 172.031 32.3196C179.92 46.6451 173.683 65.4869 170.8 74.1953C165.882 89.0526 160.403 91.3635 159.803 103.966C159.565 108.954 159.07 119.345 166.52 126.951C167.212 127.658 175.047 135.421 184.895 133.953C196.065 132.288 201.332 120.012 205.87 109.435C208.613 103.044 214.091 90.2754 208.959 85.5843C205.822 82.7161 199.441 83.5274 195.389 85.6098C189.606 88.5827 187.772 94.554 186.624 94.0796C185.589 93.6526 186.082 88.3979 188.267 82.9793C192.637 72.1429 199.311 71.7359 201.89 62.8982C202.202 61.8274 204.556 53.3039 199.726 47.3571C196.94 43.9271 191.693 41.2647 188.373 42.8691C184.619 44.6838 184.951 51.1732 183.673 51.1131C182.451 51.0557 181.405 45.0881 181.236 39.0384C180.987 30.1507 182.839 28.4944 181.565 23.8015C179.621 16.6419 173.227 12.8185 172.299 12.2813C163.613 7.25423 151.476 9.19641 150.482 12.8586Z" fill="white"/>
<path d="M171.486 147.847C167.9 146.721 161.863 144.824 157.521 139.223C149.626 129.042 152.459 113.226 158.156 103.204C163.05 94.595 172 89.0598 189.901 77.9886C206.76 67.5611 212.492 66.3992 213.986 59.9453C216.116 50.7443 206.621 43.7969 210.721 33.435C211.213 32.1912 212.902 27.9207 216.849 26.3455C223.605 23.6485 232.234 30.7434 236.254 35.9544C240.131 40.9806 244.27 50.1516 241.023 57.5014C238.671 62.8272 234.44 62.6733 233.496 67.5829C232.546 72.5235 236.543 74.1689 238.324 82.3309C239.035 85.5916 240.462 92.1365 237.52 97.7291C233.716 104.96 226.05 104.052 224.595 110.081C223.543 114.437 227.202 116.336 227.071 121.39C226.901 128.045 220.352 132.862 214.849 136.799C208.368 141.435 190.885 153.94 171.486 147.847Z" fill="url(#paint1_linear_7_291)"/>
<path opacity="0.16" d="M219.399 29.1955C215.794 31.8024 226.588 42.8736 223.904 57.8238C221.015 73.9084 204.286 84.6701 196.555 89.6426C183.364 98.1279 177.644 96.4989 169.233 105.931C165.905 109.664 158.971 117.441 159.975 128.022C160.069 129.005 161.274 139.949 169.863 144.968C179.606 150.661 191.442 144.403 201.64 139.011C207.802 135.753 220.113 129.244 219.075 122.382C218.441 118.187 212.965 114.826 208.499 113.911C202.125 112.605 196.935 116.106 196.34 115.018C195.804 114.039 199.499 110.257 204.615 107.408C214.845 101.709 220.295 105.568 227.872 100.304C228.79 99.6658 235.993 94.5057 235.983 86.8554C235.977 82.4429 233.572 77.088 229.977 76.2594C225.911 75.3225 222.08 80.5809 221.123 79.7341C220.208 78.9246 223.156 73.6253 226.836 68.8121C232.244 61.74 234.729 61.6089 236.694 57.16C239.694 50.3719 237.127 43.3953 236.744 42.3974C233.15 33.0498 222.48 26.9674 219.399 29.1955Z" fill="white"/>
<path d="M211.197 237.625L62.6758 245.941V72.7721L211.197 81.0871V237.625Z" fill="url(#paint2_linear_7_291)"/>
<path d="M62.6758 245.941L9.41623 234.091V83.827L62.6758 72.7721V245.941Z" fill="url(#paint3_linear_7_291)"/>
<path d="M110.285 75.7159V102.79L150.044 104.801V78.5021L110.285 75.7159Z" fill="white"/>
<path d="M20.8127 81.4614L43.1205 76.8304V103.495L20.8127 106.297V81.4614Z" fill="white"/>
<path d="M145.582 46.0933C145.582 63.7432 120.767 95.9499 109.536 109.621C106.741 113.023 101.517 113.023 98.7222 109.621C87.4911 95.949 62.6758 63.7423 62.6758 46.0933C62.6758 23.2825 81.235 4.79034 104.129 4.79034C127.023 4.78943 145.582 23.2816 145.582 46.0933Z" fill="url(#paint4_linear_7_291)"/>
<path d="M120.475 62.3824C129.504 53.3865 129.504 38.8012 120.475 29.8052C111.447 20.8093 96.8088 20.8093 87.7802 29.8052C78.7516 38.8012 78.7516 53.3865 87.7802 62.3824C96.8088 71.3783 111.447 71.3783 120.475 62.3824Z" fill="white"/>
<g opacity="0.3">
<path opacity="0.3" d="M103.946 92.6619C106.576 75.4045 118.013 69.8811 116.05 53.5861C113.786 34.7935 97.0856 29.7883 96.6826 13.0635C96.6177 10.371 96.9851 7.77416 97.6787 5.28748C77.8484 8.3742 62.6749 25.4669 62.6749 46.0924C62.6749 63.7423 87.4903 95.949 98.7214 109.62C100.366 111.622 102.853 112.445 105.19 112.09C103.181 104.533 103.121 98.0778 103.946 92.6619Z" fill="url(#paint5_linear_7_291)"/>
</g>
<path d="M135.304 119.687L146.507 244.944C146.677 246.841 145.355 248.527 143.566 248.691L82.9531 254.912C79.327 255.104 77.4079 253.145 77.2452 251.174L66.493 121.125C66.334 119.205 68.1351 117.396 71.7183 117.265L131.775 116.385C133.552 116.351 135.139 117.837 135.304 119.687Z" fill="url(#paint6_linear_7_291)"/>
<path d="M138.058 119.376L149.362 245.384C149.533 247.292 148.204 248.989 146.406 249.154L83.5123 254.937C81.5841 255.115 79.8689 253.638 79.7044 251.656L68.8561 120.82C68.6962 118.889 70.1337 117.279 72.0482 117.243L134.507 116.054C136.294 116.021 137.891 117.515 138.058 119.376Z" fill="url(#paint7_linear_7_291)"/>
<path d="M105.289 120.442C105.346 121.098 104.872 121.643 104.232 121.656C103.59 121.67 103.025 121.148 102.968 120.491C102.911 119.833 103.386 119.29 104.026 119.276C104.668 119.262 105.233 119.784 105.289 120.442Z" fill="url(#paint8_linear_7_291)"/>
<path d="M138.84 160.685L75.5336 163.537L73.8759 145.062L137.303 142.892L138.84 160.685Z" fill="white"/>
<path d="M146.249 246.457L83.5206 252.573L74.6792 154.019L138.048 151.518L146.249 246.457Z" fill="#D8DEE8"/>
<path d="M137.802 148.676L74.4151 151.067L71.7704 121.592L135.35 120.289L137.802 148.676Z" fill="url(#paint9_linear_7_291)"/>
<path d="M130.269 135.039L107.416 135.709L107.213 133.399L130.072 132.759L130.269 135.039Z" fill="white"/>
<path d="M130.647 139.397L107.804 140.127L107.601 137.816L130.449 137.118L130.647 139.397Z" fill="white"/>
<path d="M101.513 130.186L82.9083 130.669C82.2028 130.687 81.681 131.292 81.7459 132.017L82.7374 143.127C82.8023 143.852 83.4283 144.421 84.1329 144.397L102.711 143.765C103.399 143.741 103.908 143.14 103.845 142.425L102.878 131.453C102.815 130.737 102.202 130.169 101.513 130.186ZM100.247 131.55L93.263 137.179C93.041 137.358 92.7239 137.365 92.4735 137.197L84.6793 131.967L100.247 131.55ZM84.0597 143.057L83.1167 132.482L91.7936 138.296C92.1664 138.547 92.5905 138.664 93.0026 138.651C93.4047 138.639 93.7967 138.502 94.1193 138.242L101.642 132.171L102.548 142.442L84.0597 143.057Z" fill="white"/>
<path d="M149.916 252.933C149.059 252.933 148.218 252.52 147.708 251.756L120.024 210.311L93.2366 212.259L76.431 246.839C75.7931 248.151 74.2085 248.699 72.8917 248.065C71.5748 247.429 71.0238 245.85 71.6617 244.538L89.1343 208.586C89.5465 207.738 90.3826 207.173 91.3257 207.104L121.18 204.933C122.136 204.865 123.049 205.311 123.578 206.103L152.118 248.83C152.929 250.044 152.599 251.683 151.381 252.491C150.93 252.79 150.42 252.933 149.916 252.933Z" fill="white"/>
<path d="M111.608 256C110.25 256 109.094 254.965 108.972 253.592L105.066 209.322L73.557 149.465C72.8771 148.174 73.3769 146.579 74.6728 145.901C75.9686 145.224 77.5697 145.722 78.2495 147.013L110.006 207.338C110.168 207.647 110.268 207.985 110.299 208.333L114.251 253.129C114.379 254.581 113.302 255.862 111.844 255.99C111.765 255.996 111.686 256 111.608 256Z" fill="white"/>
<path d="M109.742 234.063C108.783 234.063 107.966 233.332 107.882 232.361C107.792 231.336 108.553 230.433 109.582 230.344L128.853 228.669L122.097 151.116C122.007 150.091 122.769 149.187 123.798 149.098C124.828 149.012 125.734 149.768 125.823 150.794L132.741 230.203C132.831 231.228 132.069 232.131 131.04 232.22L109.908 234.056C109.852 234.061 109.797 234.063 109.742 234.063Z" fill="white"/>
<path d="M144.258 214.071C143.979 214.071 143.699 213.965 143.486 213.753L108.219 178.56C106.429 179.139 101.144 180.84 95.8766 182.471C92.086 183.645 89.0447 184.552 86.8351 185.168C85.4396 185.558 84.428 185.827 83.6796 185.988C85.0211 189.72 89.4578 201.346 92.5365 209.348C92.7522 209.908 92.4707 210.537 91.9087 210.752C91.3458 210.967 90.7153 210.686 90.4996 210.126C90.4758 210.065 88.1053 203.903 85.7869 197.807C84.4244 194.226 83.346 191.369 82.5811 189.315C82.1261 188.091 81.7779 187.141 81.5458 186.49C81.098 185.232 80.8512 184.538 81.7093 184.081C81.9607 183.947 82.2458 183.923 82.508 183.995C84.5752 183.786 99.2295 179.196 108.181 176.286C108.572 176.159 109 176.261 109.291 176.551L145.031 212.216C145.457 212.641 145.456 213.328 145.03 213.753C144.817 213.966 144.537 214.071 144.258 214.071ZM83.0892 184.372C83.103 184.389 83.1157 184.406 83.1276 184.423C83.1157 184.405 83.102 184.389 83.0892 184.372Z" fill="white"/>
<path d="M108.517 178.407C107.958 178.407 107.481 177.98 107.431 177.414L104.591 145.158C104.538 144.56 104.982 144.033 105.583 143.98C106.183 143.93 106.712 144.37 106.765 144.968L109.605 177.224C109.658 177.822 109.214 178.349 108.614 178.402C108.581 178.406 108.549 178.407 108.517 178.407Z" fill="white"/>
<path d="M146.811 246.268C146.559 246.268 146.312 246.147 146.163 245.923L143.392 241.792C143.152 241.435 143.248 240.953 143.607 240.715C143.964 240.477 144.448 240.573 144.687 240.929L147.458 245.06C147.697 245.417 147.601 245.898 147.243 246.137C147.11 246.225 146.959 246.268 146.811 246.268ZM141.269 238.005C141.018 238.005 140.771 237.884 140.621 237.66L137.85 233.529C137.611 233.172 137.707 232.69 138.065 232.452C138.422 232.214 138.907 232.309 139.145 232.666L141.916 236.797C142.155 237.154 142.059 237.635 141.701 237.874C141.568 237.963 141.418 238.005 141.269 238.005ZM135.727 229.743C135.475 229.743 135.228 229.622 135.079 229.398L132.308 225.267C132.068 224.91 132.164 224.428 132.523 224.189C132.88 223.952 133.364 224.046 133.604 224.403L136.374 228.534C136.613 228.891 136.517 229.373 136.16 229.612C136.025 229.7 135.875 229.743 135.727 229.743ZM130.185 221.481C129.934 221.481 129.687 221.359 129.537 221.135L126.766 217.004C126.527 216.647 126.624 216.166 126.981 215.927C127.339 215.689 127.823 215.785 128.062 216.141L130.833 220.272C131.072 220.629 130.976 221.111 130.618 221.349C130.484 221.438 130.333 221.481 130.185 221.481ZM124.643 213.217C124.391 213.217 124.144 213.096 123.994 212.872L121.223 208.741C120.984 208.384 121.08 207.903 121.438 207.664C121.796 207.425 122.279 207.522 122.519 207.878L125.29 212.009C125.529 212.366 125.432 212.848 125.075 213.086C124.942 213.175 124.791 213.217 124.643 213.217ZM107.513 209.063C107.233 209.063 106.962 208.911 106.823 208.646L104.506 204.246C104.306 203.866 104.453 203.397 104.834 203.198C105.215 202.998 105.686 203.145 105.886 203.525L108.203 207.925C108.403 208.305 108.256 208.774 107.874 208.973C107.759 209.034 107.636 209.063 107.513 209.063ZM112.319 209.001C111.915 209.001 111.573 208.689 111.543 208.28C111.512 207.852 111.834 207.481 112.263 207.45L117.237 207.089C117.662 207.055 118.039 207.379 118.07 207.806C118.101 208.234 117.779 208.606 117.35 208.636L112.376 208.998C112.357 209.001 112.338 209.001 112.319 209.001ZM102.881 200.262C102.601 200.262 102.33 200.111 102.19 199.846L99.8738 195.445C99.6736 195.066 99.8208 194.597 100.202 194.397C100.582 194.198 101.054 194.345 101.254 194.724L103.57 199.125C103.77 199.505 103.623 199.974 103.242 200.173C103.127 200.234 103.003 200.262 102.881 200.262ZM98.248 191.462C97.9675 191.462 97.697 191.311 97.5572 191.046L95.2406 186.645C95.0405 186.265 95.1876 185.797 95.5687 185.597C95.9497 185.398 96.4204 185.544 96.6205 185.924L98.9371 190.325C99.1372 190.704 98.9901 191.173 98.609 191.373C98.4939 191.433 98.3705 191.462 98.248 191.462ZM93.6149 182.661C93.3343 182.661 93.0638 182.509 92.924 182.244L90.6074 177.844C90.4073 177.464 90.5544 176.995 90.9355 176.796C91.3166 176.596 91.7872 176.743 91.9873 177.123L94.3039 181.523C94.504 181.903 94.3569 182.372 93.9758 182.571C93.8607 182.632 93.7373 182.661 93.6149 182.661ZM88.9826 173.86C88.7021 173.86 88.4316 173.709 88.2917 173.444L85.9752 169.043C85.775 168.664 85.9222 168.195 86.3032 167.995C86.6843 167.796 87.1549 167.943 87.3551 168.322L89.6716 172.723C89.8718 173.103 89.7246 173.572 89.3436 173.771C89.2284 173.831 89.1041 173.86 88.9826 173.86ZM84.3494 165.059C84.0689 165.059 83.7984 164.908 83.6586 164.643L81.342 160.242C81.1418 159.863 81.289 159.394 81.67 159.194C82.0511 158.995 82.5217 159.141 82.7219 159.521L85.0385 163.922C85.2386 164.301 85.0915 164.77 84.7104 164.97C84.5952 165.031 84.4719 165.059 84.3494 165.059ZM79.7172 156.259C79.4366 156.259 79.1661 156.107 79.0263 155.842L78.0997 154.082L77.7615 150.82C77.7177 150.394 78.0284 150.012 78.457 149.968C78.8856 149.923 79.2676 150.234 79.3123 150.661L79.6194 153.626L80.4071 155.122C80.6072 155.502 80.4601 155.971 80.079 156.17C79.9621 156.229 79.8387 156.259 79.7172 156.259ZM78.0229 146.573C77.6281 146.573 77.29 146.276 77.2489 145.877L76.7362 140.934C76.6923 140.508 77.0031 140.127 77.4316 140.082C77.8584 140.037 78.2422 140.348 78.287 140.775L78.7997 145.717C78.8435 146.143 78.5328 146.525 78.1042 146.57C78.0768 146.572 78.0494 146.573 78.0229 146.573Z" fill="url(#paint10_linear_7_291)"/>
<path d="M94.4985 187.282C96.8974 187.282 98.842 185.345 98.842 182.955C98.842 180.565 96.8974 178.627 94.4985 178.627C92.0997 178.627 90.1551 180.565 90.1551 182.955C90.1551 185.345 92.0997 187.282 94.4985 187.282Z" fill="url(#paint11_linear_7_291)"/>
<g opacity="0.48">
<path opacity="0.48" d="M122.946 205.878C116.848 184.652 99.0714 186.774 93.7547 167.595C89.3883 151.842 99.4561 143.538 93.3489 130.35C90.4767 124.147 85.4451 119.954 80.2271 117.087L72.0482 117.243C70.1337 117.279 68.6962 118.889 68.8561 120.82L79.7044 251.655C79.8689 253.637 81.5841 255.114 83.5123 254.936L135.08 250.194C131.782 246.027 128.653 240.926 126.482 234.799C121.885 221.831 126.318 217.615 122.946 205.878Z" fill="white"/>
</g>
<path d="M194.552 153.369C201.47 150.002 214.962 162.194 221.528 173.873C224.144 178.527 227.217 183.99 226.463 190.486C225.127 202.001 212.306 212.103 194.659 215.475C194.162 213.706 193.666 211.939 193.169 210.171C195.098 208.168 197.984 205.277 201.671 201.966C207.336 196.879 208.499 196.539 208.771 194.933C209.661 189.672 196.082 185.267 191.253 176.017C187.101 168.064 189.238 155.954 194.552 153.369Z" fill="url(#paint12_linear_7_291)"/>
<path d="M203.64 245.923C203.64 245.923 202.505 248.715 203.069 249.807C203.634 250.9 206.359 250.209 210.202 250.794C214.045 251.38 216.696 252.275 216.909 251.482C217.121 250.689 209.159 246.502 208.522 245.923C207.886 245.344 203.64 245.923 203.64 245.923Z" fill="url(#paint13_linear_7_291)"/>
<path d="M204.659 241.75L207.345 245.923C207.345 245.923 206.107 247.14 204.003 246.687L201.048 242.733L204.659 241.75Z" fill="url(#paint14_linear_7_291)"/>
<path opacity="0.3" d="M191.253 176.017C187.101 168.064 189.238 155.954 194.552 153.369C195.946 152.69 197.609 152.653 199.426 153.106C198.469 155.859 198.659 157.849 199.131 159.259C201.236 165.546 210.339 164.83 213.183 171.987C214.98 176.511 212.122 178.756 214.673 182.382C217.317 186.14 221.641 185.51 222.977 189.17C223.972 191.897 222.01 193.449 222.764 195.746C222.974 196.386 223.388 197.029 224.084 197.64C219.408 206.021 208.525 212.825 194.659 215.475C194.162 213.706 193.666 211.939 193.169 210.171C195.098 208.168 197.984 205.278 201.671 201.966C207.336 196.879 208.499 196.539 208.771 194.933C209.662 189.672 196.083 185.267 191.253 176.017Z" fill="url(#paint15_linear_7_291)"/>
<path d="M199.273 155.864C198.974 167.918 199.142 180.951 200.018 194.824C201.137 212.54 203.232 228.812 205.794 243.435C204.656 243.795 203.518 244.156 202.379 244.517C190.676 233.155 187.173 223.16 186.214 215.97C185.536 210.887 186.563 210.451 185.648 204.09C183.906 191.977 179.362 187.829 176.17 176.488C174.972 172.231 173.639 165.802 173.724 157.42C182.24 156.901 190.757 156.382 199.273 155.864Z" fill="url(#paint16_linear_7_291)"/>
<path d="M207.657 134.274C207.445 134.322 206.522 134.628 206.157 138.468C205.277 147.729 210.117 151.478 208.925 156.5C207.781 161.32 201.949 163.659 195.945 166.066C191.933 167.675 179.523 172.65 172.307 167.056C169.269 164.701 168.937 161.858 166.771 151.409C161.266 124.86 159.133 122.579 161.448 116.83C165.425 106.96 176.071 102.873 177.842 102.193C196.729 94.941 219.033 108.269 227.846 123.579C229.007 125.595 235.938 137.635 231.068 143.346C228.121 146.801 221.352 147.359 216.884 145.003C210.914 141.857 209.645 133.819 207.657 134.274Z" fill="url(#paint17_linear_7_291)"/>
<path d="M228.3 141.297C228.359 141.297 228.418 141.284 228.476 141.258C228.69 141.161 228.784 140.91 228.687 140.697C228.525 140.343 224.627 132.006 215.617 128.717C215.396 128.635 215.152 128.748 215.072 128.969C214.99 129.189 215.104 129.432 215.325 129.512C223.991 132.677 227.874 140.965 227.912 141.048C227.983 141.205 228.138 141.297 228.3 141.297Z" fill="url(#paint18_linear_7_291)"/>
<path d="M173.795 113.437C174.987 116.67 171.41 119.472 172.944 122.983C175.141 128.015 183.873 125.432 186.996 130.407C190.696 136.304 182.223 145.977 185.718 149.288C187.311 150.796 189.152 148.864 193.809 149.924C200.441 151.434 202.433 156.656 205.518 155.863C206.489 155.615 207.665 154.737 208.654 152.036C209.085 153.534 209.291 154.957 208.924 156.5C207.78 161.32 201.948 163.659 195.944 166.066C191.931 167.675 179.522 172.65 172.306 167.056C169.268 164.701 168.936 161.858 166.77 151.409C161.265 124.86 159.132 122.579 161.448 116.83C162.71 113.696 164.646 111.148 166.755 109.104C171.303 110.105 173.171 111.744 173.795 113.437Z" fill="url(#paint19_linear_7_291)"/>
<path d="M185.213 133.722C184.703 134.183 179.536 138.718 173.321 137.17C167.908 135.822 164.585 130.578 164.003 126.165C162.618 115.671 176.34 106.863 174.648 104.739C173.641 103.475 168.238 105.924 164.641 108.134C160.907 110.427 150.818 116.625 148.667 128.786C148.485 129.819 146.112 144.319 154.419 150.306C162.1 155.843 177.145 152.831 187.334 139.735C186.627 137.73 185.919 135.726 185.213 133.722Z" fill="url(#paint20_linear_7_291)"/>
<path d="M218.527 124.137L212.375 143.718C212.173 144.36 211.587 144.805 210.912 144.829L177.805 145.994C176.768 146.031 175.973 145.084 176.193 144.073L180.475 124.412C180.629 123.7 181.251 123.185 181.981 123.162L216.959 122.077C218.053 122.043 218.854 123.095 218.527 124.137Z" fill="#D8DEE8"/>
<path d="M218.232 124.78L212.261 143.785C212.065 144.408 211.496 144.84 210.842 144.863L178.71 145.994C177.703 146.03 176.932 145.111 177.146 144.129L181.301 125.047C181.451 124.357 182.054 123.857 182.762 123.835L216.709 122.782C217.771 122.749 218.549 123.77 218.232 124.78Z" fill="url(#paint21_linear_7_291)"/>
<path d="M177.146 144.129L181.112 125.915C181.784 127.5 182.652 128.301 183.483 128.71C185.875 129.888 187.736 127.766 192.958 127.968C194.954 128.046 199.037 128.202 201.581 130.832C203.971 133.303 202.955 135.842 204.455 139.317C205.212 141.072 206.617 143.06 209.325 144.916L178.71 145.993C177.703 146.03 176.932 145.111 177.146 144.129Z" fill="url(#paint22_linear_7_291)"/>
<path d="M197.309 100.307C196.958 101.538 197.701 102.816 198.949 103.117C200.461 103.48 202.304 103.984 203.1 104.437C204.56 105.27 198.651 104.308 193.216 104.181C189.823 104.102 187.288 103.722 185.862 103.448C185.479 103.374 185.45 102.842 185.82 102.722C187.178 102.281 189.386 101.633 191.252 101.399C193.562 101.11 196.039 96.0309 196.039 96.0309L198.02 97.8229L197.309 100.307Z" fill="url(#paint23_linear_7_291)"/>
<path d="M216.975 130.377L216.6 129.766C216.267 128.494 215.042 127.664 213.733 127.825L211.759 128.067C211.141 128.143 210.724 128.728 210.851 129.336C211.034 130.214 211.507 131.264 212.72 131.182C214.78 131.044 216.097 134.036 216.097 134.036L216.888 132.926C217.426 132.17 217.461 131.168 216.975 130.377Z" fill="url(#paint24_linear_7_291)"/>
<path d="M201.722 97.7036C203.43 97.4514 205.343 96.0209 205.306 94.84C205.254 93.2156 201.528 92.326 199.646 91.8771C197.759 91.4264 196.958 91.5893 196.418 91.9991C195.866 92.4179 195.504 93.1673 195.385 93.8138C195.32 94.1662 195.317 94.6506 195.378 95.6167C195.431 96.4735 195.416 96.4361 195.438 96.6893C195.492 97.2975 195.658 98.3674 196.253 99.8498C196.501 99.5793 196.829 99.2561 197.244 98.9365C197.403 98.8136 198.034 98.3392 198.751 98.0514C199.981 97.557 200.686 97.8566 201.722 97.7036Z" fill="url(#paint25_linear_7_291)"/>
<path d="M195.345 98.1962C195.345 98.1962 195.455 100.566 197.697 101.607C199.704 102.539 202.368 98.3638 201.635 96.7694C201.391 96.2376 200.633 95.6595 199.857 95.4801C199.399 95.3745 199.175 95.4655 198.429 95.2779C197.742 95.1049 197.608 94.9456 197.342 94.9993C197.011 95.0658 196.587 95.4418 196.27 96.9151C196.106 96.3405 195.74 95.9554 195.345 95.9317C195.282 95.9281 195.099 95.9454 194.949 96.041C194.407 96.3879 194.513 97.2665 195.345 98.1962Z" fill="url(#paint26_linear_7_291)"/>
<defs>
<linearGradient id="paint0_linear_7_291" x1="205.073" y1="42.5458" x2="135.684" y2="102.021" gradientUnits="userSpaceOnUse">
<stop offset="0.00359712" stop-color="#E38DDD"/>
<stop offset="1" stop-color="#9571F6"/>
</linearGradient>
<linearGradient id="paint1_linear_7_291" x1="243.175" y1="86.4565" x2="151.68" y2="89.0195" gradientUnits="userSpaceOnUse">
<stop stop-color="#FF9085"/>
<stop offset="1" stop-color="#FB6FBB"/>
</linearGradient>
<linearGradient id="paint2_linear_7_291" x1="183.155" y1="77.4221" x2="60.5657" y2="285.213" gradientUnits="userSpaceOnUse">
<stop stop-color="#FFC444"/>
<stop offset="0.3138" stop-color="#FBA94A"/>
<stop offset="0.9964" stop-color="#F36F56"/>
</linearGradient>
<linearGradient id="paint3_linear_7_291" x1="79.1619" y1="92.3293" x2="-14.4228" y2="250.957" gradientUnits="userSpaceOnUse">
<stop stop-color="#FFC444"/>
<stop offset="0.3138" stop-color="#FBA94A"/>
<stop offset="0.9964" stop-color="#F36F56"/>
</linearGradient>
<linearGradient id="paint4_linear_7_291" x1="98.7811" y1="31.0978" x2="140.266" y2="138.339" gradientUnits="userSpaceOnUse">
<stop stop-color="#AA80F9"/>
<stop offset="0.9964" stop-color="#6165D7"/>
</linearGradient>
<linearGradient id="paint5_linear_7_291" x1="83.8333" y1="36.88" x2="125.318" y2="144.122" gradientUnits="userSpaceOnUse">
<stop stop-color="#AA80F9"/>
<stop offset="0.9964" stop-color="#6165D7"/>
</linearGradient>
<linearGradient id="paint6_linear_7_291" x1="64.1214" y1="184.061" x2="148.693" y2="187.22" gradientUnits="userSpaceOnUse">
<stop stop-color="#444B8C"/>
<stop offset="0.9964" stop-color="#26264F"/>
</linearGradient>
<linearGradient id="paint7_linear_7_291" x1="100.024" y1="205.618" x2="112.834" y2="173.704" gradientUnits="userSpaceOnUse">
<stop stop-color="#444B8C"/>
<stop offset="0.9964" stop-color="#26264F"/>
</linearGradient>
<linearGradient id="paint8_linear_7_291" x1="106.094" y1="115.715" x2="27.5476" y2="306.996" gradientUnits="userSpaceOnUse">
<stop stop-color="#FFC444"/>
<stop offset="0.9964" stop-color="#F36F56"/>
</linearGradient>
<linearGradient id="paint9_linear_7_291" x1="76.2606" y1="91.9755" x2="137.21" y2="195.577" gradientUnits="userSpaceOnUse">
<stop stop-color="#FF9085"/>
<stop offset="1" stop-color="#FB6FBB"/>
</linearGradient>
<linearGradient id="paint10_linear_7_291" x1="83.0735" y1="137.791" x2="129.32" y2="253.329" gradientUnits="userSpaceOnUse">
<stop stop-color="#AA80F9"/>
<stop offset="0.9964" stop-color="#6165D7"/>
</linearGradient>
<linearGradient id="paint11_linear_7_291" x1="82.1829" y1="204.731" x2="-5.85079" y2="361.527" gradientUnits="userSpaceOnUse">
<stop stop-color="#FFC444"/>
<stop offset="0.3138" stop-color="#FBA94A"/>
<stop offset="0.9964" stop-color="#F36F56"/>
</linearGradient>
<linearGradient id="paint12_linear_7_291" x1="226.579" y1="184.137" x2="189.069" y2="184.137" gradientUnits="userSpaceOnUse">
<stop stop-color="#444B8C"/>
<stop offset="0.9964" stop-color="#3E4177"/>
</linearGradient>
<linearGradient id="paint13_linear_7_291" x1="216.913" y1="248.73" x2="202.912" y2="248.73" gradientUnits="userSpaceOnUse">
<stop stop-color="#311944"/>
<stop offset="1" stop-color="#6B3976"/>
</linearGradient>
<linearGradient id="paint14_linear_7_291" x1="200.983" y1="224.285" x2="205.846" y2="254.838" gradientUnits="userSpaceOnUse">
<stop stop-color="#311944"/>
<stop offset="1" stop-color="#A03976"/>
</linearGradient>
<linearGradient id="paint15_linear_7_291" x1="226.579" y1="184.14" x2="189.069" y2="184.14" gradientUnits="userSpaceOnUse">
<stop stop-color="#444B8C"/>
<stop offset="0.9964" stop-color="#3E4177"/>
</linearGradient>
<linearGradient id="paint16_linear_7_291" x1="205.794" y1="200.19" x2="173.721" y2="200.19" gradientUnits="userSpaceOnUse">
<stop stop-color="#444B8C"/>
<stop offset="0.9964" stop-color="#3E4177"/>
</linearGradient>
<linearGradient id="paint17_linear_7_291" x1="185.115" y1="92.7034" x2="208.237" y2="175.339" gradientUnits="userSpaceOnUse">
<stop stop-color="#AA80F9"/>
<stop offset="0.9964" stop-color="#6165D7"/>
</linearGradient>
<linearGradient id="paint18_linear_7_291" x1="222.457" y1="133.142" x2="218.439" y2="146.232" gradientUnits="userSpaceOnUse">
<stop stop-color="#AA80F9"/>
<stop offset="0.9964" stop-color="#6165D7"/>
</linearGradient>
<linearGradient id="paint19_linear_7_291" x1="171.811" y1="96.4258" x2="194.933" y2="179.061" gradientUnits="userSpaceOnUse">
<stop stop-color="#AA80F9"/>
<stop offset="0.9964" stop-color="#6165D7"/>
</linearGradient>
<linearGradient id="paint20_linear_7_291" x1="156.874" y1="100.605" x2="179.996" y2="183.24" gradientUnits="userSpaceOnUse">
<stop stop-color="#AA80F9"/>
<stop offset="0.9964" stop-color="#6165D7"/>
</linearGradient>
<linearGradient id="paint21_linear_7_291" x1="201.715" y1="125.516" x2="187.741" y2="150.803" gradientUnits="userSpaceOnUse">
<stop offset="0.494" stop-color="#EBEFF2"/>
<stop offset="1" stop-color="white"/>
</linearGradient>
<linearGradient id="paint22_linear_7_291" x1="179.379" y1="152.363" x2="195.639" y2="134.839" gradientUnits="userSpaceOnUse">
<stop offset="0.494" stop-color="#EBEFF2"/>
<stop offset="1" stop-color="white"/>
</linearGradient>
<linearGradient id="paint23_linear_7_291" x1="192.242" y1="85.1869" x2="194.92" y2="108.1" gradientUnits="userSpaceOnUse">
<stop stop-color="#311944"/>
<stop offset="1" stop-color="#A03976"/>
</linearGradient>
<linearGradient id="paint24_linear_7_291" x1="217.317" y1="130.92" x2="210.827" y2="130.92" gradientUnits="userSpaceOnUse">
<stop stop-color="#311944"/>
<stop offset="1" stop-color="#A03976"/>
</linearGradient>
<linearGradient id="paint25_linear_7_291" x1="189.128" y1="103.651" x2="202.289" y2="92.56" gradientUnits="userSpaceOnUse">
<stop stop-color="#311944"/>
<stop offset="1" stop-color="#6B3976"/>
</linearGradient>
<linearGradient id="paint26_linear_7_291" x1="194.68" y1="88.2836" x2="197.219" y2="94.654" gradientUnits="userSpaceOnUse">
<stop stop-color="#311944"/>
<stop offset="1" stop-color="#A03976"/>
</linearGradient>
</defs>
</svg>
